<?xml version="1.0" encoding="utf-8"?>
<!-- Generator: Adobe Illustrator 19.0.1, SVG Export Plug-In . SVG Version: 6.00 Build 0)  -->
<svg version="1.1" id="Layer_1" xmlns="http://www.w3.org/2000/svg" xmlns:xlink="http://www.w3.org/1999/xlink" x="0px" y="0px"
	 viewBox="0 0 200 200" style="enable-background:new 0 0 200 200;" xml:space="preserve">
<style type="text/css">
	.st0{fill:#5A5B5B;}
	.st1{fill:none;stroke:#54444C;stroke-width:8;stroke-linecap:round;stroke-linejoin:round;stroke-miterlimit:10;}
	.st2{fill:#AE4F25;stroke:#54444C;stroke-width:8;stroke-linecap:round;stroke-linejoin:round;stroke-miterlimit:10;}
	.st3{fill:#E0DCD3;stroke:#54444C;stroke-width:8;stroke-linecap:round;stroke-linejoin:round;stroke-miterlimit:10;}
	.st4{clip-path:url(#SVGID_2_);}
	.st5{opacity:0.25;}
	.st6{fill:#595857;}
	.st7{opacity:0.4;}
	.st8{fill:#151514;}
	.st9{fill:#D48F4F;stroke:#54444C;stroke-width:8;stroke-linecap:round;stroke-linejoin:round;stroke-miterlimit:10;}
	.st10{opacity:0.46;}
	.st11{clip-path:url(#SVGID_4_);}
	.st12{fill:#602E1A;}
	.st13{opacity:0.47;fill:#FFFFFF;}
	.st14{fill:#EFE0C2;stroke:#54444C;stroke-width:8;stroke-linecap:round;stroke-linejoin:round;stroke-miterlimit:10;}
	.st15{fill:#CD3727;stroke:#54444C;stroke-width:8;stroke-linecap:round;stroke-linejoin:round;stroke-miterlimit:10;}
	.st16{clip-path:url(#SVGID_6_);}
	.st17{fill:#F6E6D7;}
	.st18{clip-path:url(#SVGID_8_);}
	.st19{clip-path:url(#SVGID_10_);}
	.st20{clip-path:url(#SVGID_12_);}
	.st21{fill:none;stroke:#F6E6D7;stroke-width:2;stroke-linecap:round;stroke-linejoin:round;stroke-miterlimit:10;}
	.st22{fill:#E9D7E9;stroke:#54444C;stroke-width:8;stroke-linecap:round;stroke-linejoin:round;stroke-miterlimit:10;}
	.st23{fill:#5BBA47;stroke:#54444C;stroke-width:8;stroke-linecap:round;stroke-linejoin:round;stroke-miterlimit:10;}
	.st24{clip-path:url(#SVGID_14_);}
	.st25{fill:#5A8C47;}
	.st26{fill:#F9C41C;}
</style>
<g>
	<path class="st9" d="M102.4534,33.5871L44.049,79.2176c-19.4722,15.2133-24.168,42.7819-11.1948,62.9968l-0.0216,0.0169
		c-4.4608,3.4852-5.2518,9.9268-1.7666,14.3876c3.4852,4.4608,9.9268,5.2518,14.3876,1.7666l0.0216-0.0169
		c16.8138,17.3589,44.3616,19.5914,63.8338,4.3781l58.4044-45.6305L102.4534,33.5871z"/>
	<path class="st2" d="M151.1928,75.6674l-12.6211-16.1542l8.8602-6.9224c3.1579-2.4673,7.7181-1.9073,10.1853,1.2506l3.6863,4.7183
		c2.4673,3.1579,1.9073,7.7181-1.2506,10.1853L151.1928,75.6674z"/>
	<path class="st2" d="M138.7056,143.4955L69.7374,55.2203c-3.5663-4.5647-2.757-11.1562,1.8077-14.7225l7.8572-6.1387
		c13.668-10.6786,33.2043-9.4617,45.3482,2.9226c6.6036,6.7344,14.5374,15.6712,23.7592,27.4745s15.9737,21.6634,20.9105,29.7001
		c9.0786,14.7792,5.5331,34.0296-8.1349,44.7082l-7.8572,6.1387C148.8634,148.8695,142.2719,148.0602,138.7056,143.4955z"/>
	<g class="st10">
		<defs>
			<path id="SVGID_3_" class="st10" d="M166.0119,96.5495c-5.5205-8.9868-12.4696-18.8552-20.6542-29.331
				c-8.1843-10.4754-16.0784-19.6055-23.463-27.1365c-10.7133-10.9254-27.9226-12.0303-40.0298-2.5712l-7.857,6.1386
				c-2.8196,2.2029-3.3216,6.2888-1.1187,9.1084l68.9682,88.2753c2.2026,2.8192,6.2886,3.3206,9.1082,1.1176l7.857-6.1386
				C170.9298,126.5531,174.021,109.5876,166.0119,96.5495z"/>
		</defs>
		<clipPath id="SVGID_2_">
			<use xlink:href="#SVGID_3_"  style="overflow:visible;"/>
		</clipPath>
		<g class="st4">
			<g>
				<g>
					<path class="st12" d="M117.0264,23.9825c-6.1371,0.5074-16.7765,1.846-18.3798,9.451
						c-1.6991,8.0589,13.398,7.9263,17.8096,6.448c3.1323-1.0496,1.7905-5.2521-1.3292-4.8214
						c-5.8092,0.8021-12.4237,5.9281-7.2508,11.9689c4.2996,5.0211,11.9906,4.4623,16.5552,0.3106
						c2.0889-1.8999-0.6328-5.4616-3.0296-3.9264c-4.7602,3.049-10.5026,9.6072-8.4,15.8237
						c2.2344,6.6062,11.392,5.675,16.6349,4.2286c-0.6421-1.5231-1.2843-3.0462-1.9264-4.5694
						c-4.9815,2.478-7.3521,7.4593-3.7739,12.335c4.1231,5.6183,10.9704,4.5757,16.7584,2.6521
						c-0.8108-1.3928-1.6216-2.7856-2.4324-4.1785c-3.1114,2.6936-8.163,9.1315-4.8181,13.3933
						c3.2684,4.1644,11.1103,1.3916,14.8948-0.2753c-1.1402-1.1402-2.2803-2.2803-3.4205-3.4205
						c-1.8888,3.3019-5.3506,9.3916-2.4269,12.9688c2.7238,3.3326,9.0894,2.2371,12.6588,1.5165
						c-0.9411-1.2242-1.8822-2.4483-2.8233-3.6725c-2.6784,3.6568-5.6032,9.9826-2.653,14.2821
						c3.193,4.6533,8.4823,2.6927,13.0467,2.1782c-0.5892-1.4226-1.1785-2.8452-1.7678-4.2678
						c-3.4601,3.27-7.3462,11.0061-2.7629,14.9655c4.5887,3.9641,12.3286,0.8738,16.2081-2.4816
						c1.1983-1.0364,0.8428-3.205-0.506-3.9264c-1.167-0.6242-2.3341-1.2484-3.5011-1.8726
						c-2.8367-1.5172-5.3651,2.7975-2.5236,4.3174c1.167,0.6242,2.3341,1.2484,3.5011,1.8726
						c-0.1687-1.3088-0.3373-2.6176-0.506-3.9264c-2.0097,1.7382-6.0145,3.8885-8.4598,1.9447
						c-1.5054-1.1967-1.1922-1.9478-0.4553-3.7873c0.5789-1.4451,1.4125-2.5037,2.541-3.5702
						c1.4635-1.383,0.4347-4.516-1.7678-4.2678c-1.8788,0.2118-6.0718,1.7151-7.7039,0.8518
						c-3.6284-1.9193,0.0831-7.6798,1.6275-9.7885c1.4034-1.9161-0.9055-4.0596-2.8233-3.6725
						c-1.499,0.3026-6.2309,1.4291-7.3163-0.5293c-0.6785-1.2242,2.1716-5.6332,2.7309-6.611
						c1.3399-2.3424-1.2497-4.3766-3.4205-3.4205c-1.7366,0.7649-6.6744,2.7115-7.8464,0.9761
						c-1.1754-1.7404,2.5901-5.1689,3.8288-6.2413c1.8806-1.6281-0.1115-4.9498-2.4324-4.1785
						c-2.2879,0.7604-4.6916,1.715-7.1417,1.3695c-3.823-0.5391-6.4938-4.9775-1.99-7.2179
						c2.5688-1.2779,0.7635-5.3115-1.9264-4.5694c-2.7928,0.7705-10.7748,2.6182-10.5067-3.0932
						c0.1494-3.1827,3.7176-6.2786,6.1246-7.8204c-1.0099-1.3088-2.0197-2.6176-3.0296-3.9264
						c-1.6398,1.4915-3.8906,2.2252-6.1039,1.7065c-3.881-0.9096-1.4695-5.1964,1.6643-5.6291
						c-0.4431-1.6071-0.8861-3.2143-1.3292-4.8214c-2.601,0.8715-5.0662,1.1739-7.7678,0.5188
						c-1.3527-0.3201-2.6261-0.8437-3.8203-1.5708c0.7544-0.77,1.5469-1.4988,2.3774-2.1864
						c3.1924-2.1825,7.3741-2.5303,11.11-2.8392C120.2105,28.7193,120.2386,23.7169,117.0264,23.9825L117.0264,23.9825z"/>
				</g>
			</g>
			<g>
				<g>
					<path class="st12" d="M93.5191,28.4083c-4.3789,2.1578-17.205,9.1711-13.7801,15.5557
						c3.6911,6.8809,15.0198,6.4352,20.7027,2.9436c2.736-1.6811,0.2514-5.9734-2.5236-4.3174
						c-11.6573,6.957,1.7493,23.7956,9.3452,14.4825c-1.3088-1.0099-2.6176-2.0197-3.9264-3.0296
						c-1.8462,3.8005-5.2741,12.2076-2.0068,16.133c3.246,3.8998,13.1524,0.6889,17.1104-0.3208
						c-0.6421-1.5231-1.2843-3.0462-1.9264-4.5694c-3.5793,2.4768-11.6704,10.2624-8.5477,15.381
						c3.3058,5.4188,15.0195,0.1994,18.8294-2.0258c-1.0099-1.3088-2.0197-2.6176-3.0296-3.9264
						c-3.2432,4.0352-9.1245,12.9477-6.0532,18.3267c3.0888,5.4097,12.8054,3.0742,17.1193,0.8387
						c-1.0099-1.3088-2.0197-2.6176-3.0296-3.9264c-3.8544,3.2154-9.8715,11.1008-6.7355,16.3887
						c3.443,5.8055,12.6675,1.9605,16.6689-0.9385c-1.0099-1.3088-2.0197-2.6176-3.0296-3.9264
						c-3.0913,3.9612-5.7577,9.2317-1.9926,13.7526c3.7328,4.4821,10.9804,2.5123,15.4621,0.4363
						c-1.1402-1.1402-2.2803-2.2803-3.4205-3.4205c-2.2266,3.2899-5.157,10.4638-1.6721,13.9048
						c3.1346,3.0951,8.9242-0.0945,11.7766-2.0859c-1.2242-0.9411-2.4483-1.8822-3.6725-2.8233
						c-0.8242,3.6377-1.8032,9.9919,1.703,12.6068c3.7539,2.7996,9.7992-0.926,13.0617-2.8941
						c0.9864-0.595,1.3963-1.7245,1.1489-2.8233c-0.1559-0.6926-0.3119-1.3851-0.4678-2.0777
						c-0.7065-3.1378-5.5282-1.8098-4.8214,1.3292c0.1559,0.6926,0.3119,1.3851,0.4678,2.0777
						c0.383-0.9411,0.7659-1.8822,1.1489-2.8233c-1.2477,0.7527-5.1807,3.59-6.5275,3.0215
						c-2.4741-1.0445-1.297-5.301-0.8922-7.0876c0.4431-1.9556-1.7714-4.1506-3.6725-2.8233
						c-1.3987,0.9765-3.8672,3.1081-5.1988,1.7314c-1.5466-1.599,0.9808-5.2991,1.9352-6.7094
						c1.5345-2.2673-1.366-4.3722-3.4205-3.4205c-2.2745,1.0536-5.7227,2.3908-8.1217,0.9889
						c-3.1365-1.833-1.0986-5.0057,0.7112-7.3248c1.5657-2.0062-0.5031-5.7568-3.0296-3.9264
						c-2.0388,1.4771-9.7109,5.876-9.6466,1.0403c0.0424-3.1881,3.5703-6.8008,5.7722-8.6376
						c2.2702-1.8938-0.6226-5.1737-3.0296-3.9264c-2.4666,1.2782-9.7483,3.4994-10.1171-0.4091
						c-0.3247-3.4412,3.1221-8.43,5.1101-10.9035c1.6817-2.0923-0.4063-5.4586-3.0296-3.9264
						c-1.8333,1.0708-9.1548,4.7932-11.2053,3.6394c-1.1163,0.7951-1.0224,0.1866,0.2818-1.8255
						c0.3124-0.66,0.6728-1.2918,1.0811-1.8954c1.2429-1.9035,2.7467-3.351,4.6079-4.639c2.2673-1.5689,0.9364-5.2997-1.9264-4.5694
						c-1.751,0.4467-3.4944,0.8619-5.281,1.1451c-0.4559,0.0722-5.8081,1.0372-6.5927,0.5549
						c-1.371-0.8428,1.8293-8.9581,2.4166-10.1671c1.1512-2.3697-2.0123-5.3765-3.9264-3.0296
						c-3.0695,3.7634-8.4206-3.5654-3.286-6.6296c-0.8412-1.4391-1.6824-2.8782-2.5236-4.3174
						c-2.5138,1.5445-15.3443,3.4439-12.0343-2.681c1.7417-3.2228,7.0023-5.6281,10.1589-7.1836
						C98.9289,31.3034,96.3982,26.9895,93.5191,28.4083L93.5191,28.4083z"/>
				</g>
			</g>
			<g>
				<g>
					<path class="st12" d="M132.7514,28.2068c-5.7108-1.5283-10.6897,3.3625-9.6127,9.1514
						c1.2606,6.7756,8.3759,9.6991,14.548,8.638c-0.6421-1.5231-1.2843-3.0462-1.9264-4.5694
						c-3.8712,1.8633-10.2441,6.6686-8.1532,11.7488c2.1311,5.1778,11.0419,5.2232,15.4824,4.725
						c-0.7196-1.2539-1.4391-2.5079-2.1587-3.7618c-1.8326,3.5864-4.1502,9.7443-1.2274,13.3872
						c3.4274,4.2718,8.2251,0.7071,12.3738,0.5511c-0.7196-1.2539-1.4391-2.5079-2.1587-3.7618
						c-6.1905,8.4996,1.9807,19.3316,11.8566,16.1308c-1.0251-1.0251-2.0502-2.0502-3.0753-3.0753
						c-1.2518,5.0491-4.1563,16.2301,0.5767,20.2659c4.5565,3.8852,11.8598-1.7502,15.0507-4.9152
						c2.2878-2.2693-1.2475-5.805-3.5355-3.5355c-1.2998,1.2892-2.667,2.4405-4.276,3.3325
						c-1.0354,1.0888-2.1063,1.2947-3.2128,0.618c-1.2513-0.0955-1.6348-0.8391-1.1505-2.2309
						c-0.9022-3.6287,0.4964-8.6865,1.3688-12.2055c0.4389-1.7705-1.202-3.6824-3.0753-3.0753
						c-5.9867,1.9403-9.7603-3.9113-6.2101-8.7858c1.1203-1.5382-0.3842-3.8285-2.1587-3.7618
						c-1.9299,0.0726-3.6142,1.0339-5.4517,1.1749c-4.9007,0.376-2.767-4.8701-1.3774-7.5895
						c0.7712-1.5092-0.1364-3.9887-2.1587-3.7618c-2.0264,0.2274-8.5864,0.9203-10.1149-1.1158
						c-1.8052-2.4048,3.6094-5.2225,5.3092-6.0407c2.732-1.315,0.6676-5.0153-1.9264-4.5694
						c-2.3741,0.4082-4.6589-0.0838-6.3786-1.8035c-0.9379-0.5218-1.4649-1.3126-1.581-2.3726
						c-1.1519-1.9905-0.1438-3.314,3.0242-3.9706C134.534,33.861,135.8616,29.0391,132.7514,28.2068L132.7514,28.2068z"/>
				</g>
			</g>
			<g>
				<g>
					<path class="st12" d="M80.3802,33.7917c-4.9498,1.4484-13.1249,5.3851-12.9832,11.623
						c0.1613,7.1015,10.3062,9.1934,15.7001,9.1461c-0.2215-1.6369-0.4431-3.2738-0.6646-4.9107
						c-4.2335,0.7072-10.4554,4.0312-7.6704,9.3929c2.7125,5.222,11.2899,4.3035,15.6857,2.6375
						c-0.8108-1.3928-1.6216-2.7856-2.4324-4.1785c-3.1183,3.3275-12.6767,11.4544-6.2536,15.9763
						c4.9983,3.5189,13.5317,2.7921,17.416-1.8673c1.6603-1.9917-0.6077-5.7889-3.0296-3.9264
						c-3.9697,3.0528-6.9572,6.5994-8.9967,11.1976c-0.496,1.1184-0.4455,2.8347,0.8969,3.4205
						c6.2888,2.7442,12.6545,1.878,17.9094-2.5769c-1.1785-1.1785-2.357-2.357-3.5355-3.5355
						c-3.7038,3.9094-10.9731,12.2145-4.8518,16.9201c4.7939,3.6853,11.4057,1.7255,14.6845-2.8799
						c1.6838-2.365-1.9492-4.9574-3.9264-3.0296c-3.5066,3.4191-7.4072,9.1081-3.1059,13.6327
						c4.2311,4.4508,9.8935,0.6349,13.1218-2.8289c-1.3088-1.0099-2.6176-2.0197-3.9264-3.0296
						c-4.0152,6.0777-8.1643,14.69-2.0648,20.9274c4.7672,4.875,12.3921,4.103,16.5794-1.0401
						c1.9891-2.4432-1.2484-5.8956-3.5355-3.5355c-2.6853,2.771-8.2952,10.2462-3.0464,13.4461
						c4.9874,3.0405,13.5982-3.1593,17.0852-6.2641c-1.3928-0.8108-2.7856-1.6216-4.1785-2.4324
						c-1.4448,3.5241-2.8896,7.0482-4.3345,10.5723c-0.4908,1.1971,0.541,2.8261,1.7461,3.0753
						c3.6222,0.7491,6.7616,0.332,10.0521-1.3423c-1.2242-0.9411-2.4483-1.8822-3.6725-2.8233
						c-0.9551,5.6317-2.8673,15.2188,2.3013,19.4876c5.4101,4.4682,11.7442-0.1185,15.6512-4.1387
						c2.2439-2.3089-1.288-5.8482-3.5355-3.5355c-2.8414,2.9238-8.2684,7.7858-10.2167,0.2752
						c-0.8214-3.1665,0.0954-7.6596,0.6211-10.7594c0.3665-2.1612-1.6278-3.8637-3.6725-2.8233
						c-2.079,1.0579-3.9147,1.3107-6.1993,0.8383c0.582,1.0251,1.1641,2.0502,1.7461,3.0753
						c1.4448-3.5241,2.8896-7.0482,4.3345-10.5723c1.0265-2.5038-2.5104-3.9175-4.1785-2.4324
						c-1.9536,1.7394-5.1297,4.2883-7.8858,4.675c-3.9547,0.5548-0.5858-3.2341,0.918-4.786
						c-1.1785-1.1785-2.357-2.357-3.5355-3.5355c-3.212,3.9452-9.0568,3.9164-10.7645-1.483
						c-1.3856-4.381,1.789-8.843,4.1028-12.3452c1.5638-2.3671-1.9955-5.1014-3.9264-3.0296
						c-1.6361,1.7555-1.3319,2.3298-3.7714,0.5899c-2.0876-0.5447-2.4504-1.307-1.0886-2.287
						c0.5715-0.7407,1.2099-1.4192,1.9151-2.0356c-1.3088-1.0099-2.6176-2.0197-3.9264-3.0296
						c-1.6145,2.2677-8.1727,4.0939-7.1424-0.7701c0.5469-2.5817,3.449-5.4024,5.1626-7.211
						c2.243-2.3675-1.1052-5.5958-3.5355-3.5355c-3.3627,2.8507-7.7679,3.5765-11.8503,1.7951
						c0.299,1.1402,0.5979,2.2803,0.8969,3.4205c1.6664-3.757,3.9221-6.8808,7.203-9.4038
						c-1.0099-1.3088-2.0197-2.6176-3.0296-3.9264c-1.5202,1.8236-7.3134,4.2022-9.4456,1.8743
						c-2.0945-2.2867,3.9818-7.4477,5.3543-8.9123c1.5779-1.6838,0.0412-5.1159-2.4324-4.1785
						c-1.9244,0.7293-3.8681,1.2459-5.9491,1.121c-0.8889-0.1715-1.7778-0.3429-2.6666-0.5144
						c0.3254-2.1134,1.4117-3.1115,3.2589-2.9942c2.8177-0.4707,2.0971-4.9349-0.6646-4.9107
						c-2.6811,0.0235-12.5513-1.2055-9.8277-5.8867c1.5518-2.6671,5.7107-4.2624,8.44-5.061
						C84.7912,37.7113,83.4798,32.8847,80.3802,33.7917L80.3802,33.7917z"/>
				</g>
			</g>
		</g>
	</g>
	
		<ellipse transform="matrix(0.6157 0.788 -0.788 0.6157 90.0533 -26.0302)" class="st13" cx="71.7115" cy="79.3032" rx="5.75" ry="5.2183"/>
	<path class="st13" d="M47.857,97.9404L47.857,97.9404c-1.606-2.0556-1.2415-5.0239,0.814-6.6298l9.0621-7.0801
		c2.0556-1.606,5.0238-1.2415,6.6298,0.814l0,0c1.606,2.0556,1.2415,5.0238-0.814,6.6298l-9.0621,7.0801
		C52.4313,100.3605,49.463,99.996,47.857,97.9404z"/>
</g>
</svg>
