<?xml version="1.0" encoding="utf-8"?>
<!-- Generator: Adobe Illustrator 19.0.1, SVG Export Plug-In . SVG Version: 6.00 Build 0)  -->
<svg version="1.1" id="Layer_1" xmlns="http://www.w3.org/2000/svg" xmlns:xlink="http://www.w3.org/1999/xlink" x="0px" y="0px"
	 viewBox="0 0 200 200" style="enable-background:new 0 0 200 200;" xml:space="preserve">
<style type="text/css">
	.st0{fill:#5A5B5B;}
	.st1{fill:none;stroke:#54444C;stroke-width:8;stroke-linecap:round;stroke-linejoin:round;stroke-miterlimit:10;}
	.st2{fill:#AE4F25;stroke:#54444C;stroke-width:8;stroke-linecap:round;stroke-linejoin:round;stroke-miterlimit:10;}
	.st3{fill:#E0DCD3;stroke:#54444C;stroke-width:8;stroke-linecap:round;stroke-linejoin:round;stroke-miterlimit:10;}
	.st4{clip-path:url(#SVGID_2_);}
	.st5{opacity:0.25;}
	.st6{fill:#595857;}
	.st7{opacity:0.4;}
	.st8{fill:#151514;}
	.st9{fill:#D48F4F;stroke:#54444C;stroke-width:8;stroke-linecap:round;stroke-linejoin:round;stroke-miterlimit:10;}
	.st10{opacity:0.46;}
	.st11{clip-path:url(#SVGID_4_);}
	.st12{fill:#602E1A;}
	.st13{opacity:0.47;fill:#FFFFFF;}
	.st14{fill:#EFE0C2;stroke:#54444C;stroke-width:8;stroke-linecap:round;stroke-linejoin:round;stroke-miterlimit:10;}
	.st15{fill:#CD3727;stroke:#54444C;stroke-width:8;stroke-linecap:round;stroke-linejoin:round;stroke-miterlimit:10;}
	.st16{clip-path:url(#SVGID_6_);}
	.st17{fill:#F6E6D7;}
	.st18{clip-path:url(#SVGID_8_);}
	.st19{clip-path:url(#SVGID_10_);}
	.st20{clip-path:url(#SVGID_12_);}
	.st21{fill:none;stroke:#F6E6D7;stroke-width:2;stroke-linecap:round;stroke-linejoin:round;stroke-miterlimit:10;}
	.st22{fill:#E9D7E9;stroke:#54444C;stroke-width:8;stroke-linecap:round;stroke-linejoin:round;stroke-miterlimit:10;}
	.st23{fill:#5BBA47;stroke:#54444C;stroke-width:8;stroke-linecap:round;stroke-linejoin:round;stroke-miterlimit:10;}
	.st24{clip-path:url(#SVGID_14_);}
	.st25{fill:#5A8C47;}
	.st26{fill:#F9C41C;}
</style>
<g>
	<g>
		<g>
			<path class="st3" d="M49.9237,143.3845L49.9237,143.3845c-11.1985-14.3334-9.078-34.9523,4.8033-46.7064l70.2631-59.4958
				c14.6765-12.4275,36.743-10.1581,48.583,4.9964l4.4636,5.7132c11.84,15.1545,8.7036,37.1145-6.9053,48.3486l-74.7267,53.7827
				C81.6416,160.6485,61.1222,157.7178,49.9237,143.3845z"/>
			<path class="st0" d="M132.0494,32.5759c0,0,23.9317-12.9141,43.7554,12.459s1.9615,46.0559,1.9615,46.0559l-64.6731,3.4118
				L132.0494,32.5759z"/>
			<polyline class="st1" points="129.1773,36.2531 108.303,97.7736 173.0445,92.4026 			"/>
		</g>
		<path class="st1" d="M49.9237,143.3845L49.9237,143.3845c-11.1985-14.3334-9.078-34.9523,4.8033-46.7064l70.2631-59.4958
			c14.6765-12.4275,36.743-10.1581,48.583,4.9964l4.4636,5.7132c11.84,15.1545,8.7036,37.1145-6.9053,48.3486l-74.7267,53.7827
			C81.6416,160.6485,61.1222,157.7178,49.9237,143.3845z"/>
	</g>
	<g>
		<defs>
			<path id="SVGID_1_" d="M174.8845,50.3544l-4.4635-5.713c-4.9247-6.3039-11.9657-10.2849-19.8799-11.2567
				c-0.2011-0.0247-0.4025-0.0475-0.6046-0.0683c-8.1602-0.8391-16.1018,1.6176-22.3619,6.9186L57.3119,99.7309
				c-12.2906,10.4069-14.1515,28.5-4.236,41.1907c9.9149,12.6911,27.9212,15.2636,40.9924,5.8553l74.7267-53.7828
				c6.6575-4.7917,10.9629-11.9026,12.1229-20.0234C182.0772,64.8503,179.9351,56.8184,174.8845,50.3544z"/>
		</defs>
		<clipPath id="SVGID_2_">
			<use xlink:href="#SVGID_1_"  style="overflow:visible;"/>
		</clipPath>
		<g class="st4">
			<g class="st5">
				<g>
					<path class="st6" d="M103.7373,25.9676c-2.4187,27.8386-7.429,55.3418-14.9232,82.2601
						c-0.4639,1.6663,0.8181,3.0385,2.4107,3.1646c25.5182,2.0198,51.1082,2.7027,76.6978,2.0466c3.2116-0.0823,3.224-5.0827,0-5
						c-25.5896,0.6561-51.1796-0.0267-76.6978-2.0466c0.8036,1.0549,1.6071,2.1097,2.4107,3.1646
						c7.6135-27.3468,12.6448-55.3103,15.1018-83.5893C109.0157,22.7625,104.0141,22.7811,103.7373,25.9676L103.7373,25.9676z"/>
				</g>
			</g>
			<g class="st5">
				<g>
					<path class="st6" d="M85.9467,41.9744c-0.4861,13.5444-0.9407,27.1605-3.2441,40.5437
						c-2.0318,11.8049-5.8834,23.3057-3.503,35.3633c0.1663,0.8425,0.9539,1.5196,1.7461,1.7461
						c23.0744,6.5971,47.4325,1.6134,70.637,7.2599c3.1256,0.7606,4.4592-4.0598,1.3292-4.8214
						c-23.2159-5.6492-47.6014-0.6738-70.637-7.2599c0.582,0.582,1.1641,1.1641,1.7461,1.7461
						c-2.5132-12.7302,2.6158-25.7282,4.3622-38.2739c1.6749-12.0315,2.1283-24.1777,2.5635-36.304
						C91.0622,38.7563,86.062,38.761,85.9467,41.9744L85.9467,41.9744z"/>
				</g>
			</g>
			<g class="st5">
				<g>
					<path class="st6" d="M69.8004,59.6039c-3.2284,24.8116-7.8443,49.4139-13.7629,73.7235
						c-0.4146,1.7027,0.7814,2.999,2.4107,3.1646c27.6757,2.8122,55.3981,5.1241,83.1573,6.9349c3.2126,0.2096,3.1999-4.7913,0-5
						c-27.7592-1.8108-55.4816-4.1227-83.1573-6.9349c0.8036,1.0549,1.6071,2.1097,2.4107,3.1646
						c6.0261-24.7512,10.6547-49.7924,13.9415-75.0527C75.2144,56.4225,70.2104,56.4528,69.8004,59.6039L69.8004,59.6039z"/>
				</g>
			</g>
			<g class="st7">
				<g>
					<path class="st8" d="M141.7641,24.4329c-4.5612,19.4245-8.1523,38.6471-17.9712,56.2474
						c-0.8481,1.5202,0.1899,3.9545,2.1587,3.7618c21.3722-2.0914,42.7443-4.1828,64.1165-6.2742c3.1733-0.3105,3.2055-5.3137,0-5
						c-21.3722,2.0914-42.7443,4.1828-64.1165,6.2742c0.7196,1.2539,1.4391,2.5079,2.1587,3.7618
						c10.0442-18.004,13.8075-37.5632,18.4753-57.4418C147.3204,22.6324,142.5005,21.2967,141.7641,24.4329L141.7641,24.4329z"/>
				</g>
			</g>
			<g class="st7">
				<g>
					<path class="st8" d="M153.002,35.2138c2.9738,5.3099-1.3436,12.6374-3.892,17.2493
						c-3.4529,6.2487-7.5064,12.1455-11.2558,18.2155c-1.2606,2.0408,0.8139,3.9769,2.8233,3.6725
						c15.17-2.2981,30.6417-2.6672,45.7384-5.4666c3.1596-0.5859,1.8213-5.4056-1.3292-4.8214
						c-15.0909,2.7984-30.5699,3.1688-45.7384,5.4666c0.9411,1.2242,1.8822,2.4483,2.8233,3.6725
						c4.7594-7.7051,10.191-15.1604,13.9033-23.4558c2.4119-5.3895,4.327-11.5522,1.2445-17.0562
						C155.7469,29.8824,151.4265,32.4004,153.002,35.2138L153.002,35.2138z"/>
				</g>
			</g>
		</g>
	</g>
	<line class="st1" x1="111.2761" y1="95.4507" x2="14.78" y2="170.8417"/>
</g>
</svg>
