<?xml version="1.0" encoding="utf-8"?>
<!-- Generator: Adobe Illustrator 19.0.1, SVG Export Plug-In . SVG Version: 6.00 Build 0)  -->
<svg version="1.1" id="Layer_1" xmlns="http://www.w3.org/2000/svg" xmlns:xlink="http://www.w3.org/1999/xlink" x="0px" y="0px"
	 viewBox="0 0 200 200" style="enable-background:new 0 0 200 200;" xml:space="preserve">
<style type="text/css">
	.st0{fill:#5A5B5B;}
	.st1{fill:none;stroke:#54444C;stroke-width:8;stroke-linecap:round;stroke-linejoin:round;stroke-miterlimit:10;}
	.st2{fill:#AE4F25;stroke:#54444C;stroke-width:8;stroke-linecap:round;stroke-linejoin:round;stroke-miterlimit:10;}
	.st3{fill:#E0DCD3;stroke:#54444C;stroke-width:8;stroke-linecap:round;stroke-linejoin:round;stroke-miterlimit:10;}
	.st4{clip-path:url(#SVGID_2_);}
	.st5{opacity:0.25;}
	.st6{fill:#595857;}
	.st7{opacity:0.4;}
	.st8{fill:#151514;}
	.st9{fill:#D48F4F;stroke:#54444C;stroke-width:8;stroke-linecap:round;stroke-linejoin:round;stroke-miterlimit:10;}
	.st10{opacity:0.46;}
	.st11{clip-path:url(#SVGID_4_);}
	.st12{fill:#602E1A;}
	.st13{opacity:0.47;fill:#FFFFFF;}
	.st14{fill:#EFE0C2;stroke:#54444C;stroke-width:8;stroke-linecap:round;stroke-linejoin:round;stroke-miterlimit:10;}
	.st15{fill:#CD3727;stroke:#54444C;stroke-width:8;stroke-linecap:round;stroke-linejoin:round;stroke-miterlimit:10;}
	.st16{clip-path:url(#SVGID_6_);}
	.st17{fill:#F6E6D7;}
	.st18{clip-path:url(#SVGID_8_);}
	.st19{clip-path:url(#SVGID_10_);}
	.st20{clip-path:url(#SVGID_12_);}
	.st21{fill:none;stroke:#F6E6D7;stroke-width:2;stroke-linecap:round;stroke-linejoin:round;stroke-miterlimit:10;}
	.st22{fill:#E9D7E9;stroke:#54444C;stroke-width:8;stroke-linecap:round;stroke-linejoin:round;stroke-miterlimit:10;}
	.st23{fill:#5BBA47;stroke:#54444C;stroke-width:8;stroke-linecap:round;stroke-linejoin:round;stroke-miterlimit:10;}
	.st24{clip-path:url(#SVGID_14_);}
	.st25{fill:#5A8C47;}
	.st26{fill:#F9C41C;}
</style>
<g>
	<g>
		<path class="st23" d="M163.6391,106.1541c22.3889,22.3889,14.8766,66.2008,14.8766,66.2008s-43.8119,7.5123-66.2008-14.8766
			s-19.3796-42.3582-5.2068-56.531S141.2503,83.7652,163.6391,106.1541z"/>
		<g>
			<defs>
				<path id="SVGID_13_" d="M153.48,169.3157c9.5679,0.6517,17.7902-0.1514,21.388-0.6085
					c0.4571-3.5979,1.2603-11.8202,0.6085-21.388c-0.7903-11.6063-3.9456-27.6546-14.4868-38.1958
					c-17.9776-17.9776-35.994-19.762-50.7308-5.0252s-12.9524,32.7532,5.0252,50.7308
					C121.1026,160.6473,132.4521,167.8834,153.48,169.3157z"/>
			</defs>
			<clipPath id="SVGID_2_">
				<use xlink:href="#SVGID_13_"  style="overflow:visible;"/>
			</clipPath>
			<g class="st4">
				<g>
					<g>
						<path class="st25" d="M170.8219,159.4183c-23.5454-23.2285-48.6776-44.7546-75.2081-64.5033
							c-2.5826-1.9225-5.0783,2.4157-2.5236,4.3174c26.1857,19.4921,50.9582,40.7963,74.1961,63.7215
							C169.5792,165.2159,173.117,161.6826,170.8219,159.4183L170.8219,159.4183z"/>
					</g>
				</g>
				<g>
					<g>
						<path class="st25" d="M171.1879,107.6844c-15.6632,4.9126-31.7099,8.2441-48.0461,9.881c-1.4092,0.1412-2.4127,1.0342-2.5,2.5
							c-1.0434,17.5125-0.4607,35.0178,1.7449,52.4223c0.3991,3.1491,5.4041,3.189,5,0
							c-2.2056-17.4043-2.7883-34.9097-1.7449-52.4223c-0.8333,0.8333-1.6667,1.6667-2.5,2.5
							c16.7832-1.6817,33.2784-5.011,49.3753-10.0596C175.577,111.5461,174.2705,106.7176,171.1879,107.6844L171.1879,107.6844z"/>
					</g>
				</g>
				<g>
					<g>
						<path class="st25" d="M183.3112,119.5145c-4.9321,5.8757-12.8076,6.1547-19.887,7.0374
							c-6.5637,0.8184-15.2952,1.6185-21.0934,5.0136c-4.858,2.8445-3.6978,11.4874-4.0604,16.3338
							c-0.6621,8.8483-0.946,17.7141-0.9269,26.5863c0.0069,3.2169,5.007,3.2229,5,0c-0.0178-8.238,0.2202-16.4714,0.7905-24.6905
							c0.263-3.7909,0.5655-7.5837,0.9804-11.3613c0.3034-2.7629,0.513-2.4128,2.7308-3.2191
							c1.9264-0.7004,3.9652-1.184,5.9531-1.6753c10.9689-2.7108,26.0665-0.9798,34.0487-10.4893
							C188.9026,120.6007,185.3833,117.0459,183.3112,119.5145L183.3112,119.5145z"/>
					</g>
				</g>
				<g>
					<g>
						<path class="st25" d="M180.8966,139.829c-7.1253,4.1583-14.7871,6.3261-23.0338,6.4912c-1.4385,0.0288-2.3813,1.1274-2.5,2.5
							c-1.4156,16.3655-2.8312,32.731-4.2469,49.0966c-0.2773,3.2053,4.7243,3.1867,5,0
							c1.4156-16.3655,2.8313-32.731,4.2469-49.0966c-0.8333,0.8333-1.6667,1.6667-2.5,2.5
							c9.097-0.1821,17.6993-2.5879,25.5574-7.1738C186.198,142.5253,183.6841,138.2022,180.8966,139.829L180.8966,139.829z"/>
					</g>
				</g>
				<g>
					<g>
						<path class="st25" d="M155.4431,92.5877c-4.2627,6.0257-12.0759,7.7439-18.7259,9.8233
							c-7.8835,2.465-15.7671,4.93-23.6506,7.3951c-0.9678,0.3026-1.9421,1.3086-1.8354,2.4107
							c0.3916,4.045-2.5856,8.6424-3.8358,12.4816c-1.3005,3.9938-2.3694,8.0667-3.2095,12.1818
							c-1.6083,7.8781-2.3496,15.8834-2.3463,23.9202c0.0013,3.2172,5.0013,3.2226,5,0
							c-0.0036-8.8053,0.9054-17.5333,2.9445-26.1073c0.972-4.087,2.1738-8.1206,3.6002-12.072
							c1.2372-3.4274,3.2075-6.68,2.8469-10.4044c-0.6118,0.8036-1.2236,1.6071-1.8354,2.4107
							c9.5445-2.9844,19.1314-5.8595,28.6389-8.9596c6.5493-2.1355,12.6373-4.777,16.7258-10.5566
							C161.6224,92.4792,157.2887,89.9787,155.4431,92.5877L155.4431,92.5877z"/>
					</g>
				</g>
			</g>
		</g>
	</g>
	<g>
		<path class="st22" d="M174.9135,99.835c-0.4862-10.5701-5.4663-23.6887-26.8178-17.4132
			c-14.6727,4.3126-29.5173,7.0695-39.8383,10.4331c6.0696-9.6021,12.7562-24.1884,20.9521-38.1877
			c11.7316-20.0385,0.3441-28.3464-9.7649-31.4724S94.527,18.6244,93.6287,41.827c-0.7115,18.3777-2.637,32.0817-3.6116,41.8908
			c-4.8587-7.8029-11.9277-18.3347-19.7737-33.0762C59.9703,31.3399,47.528,39.4319,39.9089,46.7744
			c-7.6191,7.3425-14.2456,19.6814,4.2685,31.2725c9.6787,6.0595,18.7444,12.7863,26.58,18.0319
			c-6.9405,1.8978-15.3288,4.0684-25.453,6.0159c-20.3292,3.9104-15.8901,18.0421-10.9673,27.4085s14.7016,19.2898,29.9196,5.3176
			c8.2066-7.5348,16.9125-14.2445,23.769-20.193c-0.8807,8.8127-1.3011,19.5395-2.6904,30.3423
			c-2.5663,19.9557,11.1807,22.0099,21.6613,20.5538c10.4806-1.456,24.5624-6.0084,15.9727-24.2604
			c-5.402-11.4784-8.9091-20.9713-11.6729-28.3765c9.3453,1.5695,22.679,3.1602,40.2122,7.2039
			C173.2089,125.0956,175.3996,110.4051,174.9135,99.835z"/>
		
			<ellipse transform="matrix(0.754 -0.6569 0.6569 0.754 -46.5448 79.9219)" class="st26" cx="83.4267" cy="102.1002" rx="5.7814" ry="6.2087"/>
		
			<ellipse transform="matrix(0.754 -0.6569 0.6569 0.754 -38.3514 85.8378)" class="st26" cx="95.4213" cy="94.1196" rx="5.7814" ry="6.2087"/>
		
			<ellipse transform="matrix(0.754 -0.6569 0.6569 0.754 -46.6073 92.9846)" class="st26" cx="100.8346" cy="108.715" rx="5.7814" ry="6.2087"/>
	</g>
</g>
</svg>
