<?xml version="1.0" encoding="utf-8"?>
<!-- Generator: Adobe Illustrator 19.0.1, SVG Export Plug-In . SVG Version: 6.00 Build 0)  -->
<svg version="1.1" id="Layer_1" xmlns="http://www.w3.org/2000/svg" xmlns:xlink="http://www.w3.org/1999/xlink" x="0px" y="0px"
	 viewBox="0 0 200 200" style="enable-background:new 0 0 200 200;" xml:space="preserve">
<style type="text/css">
	.st0{fill:#5A5B5B;}
	.st1{fill:none;stroke:#54444C;stroke-width:8;stroke-linecap:round;stroke-linejoin:round;stroke-miterlimit:10;}
	.st2{fill:#AE4F25;stroke:#54444C;stroke-width:8;stroke-linecap:round;stroke-linejoin:round;stroke-miterlimit:10;}
	.st3{fill:#E0DCD3;stroke:#54444C;stroke-width:8;stroke-linecap:round;stroke-linejoin:round;stroke-miterlimit:10;}
	.st4{clip-path:url(#SVGID_2_);}
	.st5{opacity:0.25;}
	.st6{fill:#595857;}
	.st7{opacity:0.4;}
	.st8{fill:#151514;}
	.st9{fill:#D48F4F;stroke:#54444C;stroke-width:8;stroke-linecap:round;stroke-linejoin:round;stroke-miterlimit:10;}
	.st10{opacity:0.46;}
	.st11{clip-path:url(#SVGID_4_);}
	.st12{fill:#602E1A;}
	.st13{opacity:0.47;fill:#FFFFFF;}
	.st14{fill:#EFE0C2;stroke:#54444C;stroke-width:8;stroke-linecap:round;stroke-linejoin:round;stroke-miterlimit:10;}
	.st15{fill:#CD3727;stroke:#54444C;stroke-width:8;stroke-linecap:round;stroke-linejoin:round;stroke-miterlimit:10;}
	.st16{clip-path:url(#SVGID_6_);}
	.st17{fill:#F6E6D7;}
	.st18{clip-path:url(#SVGID_8_);}
	.st19{clip-path:url(#SVGID_10_);}
	.st20{clip-path:url(#SVGID_12_);}
	.st21{fill:none;stroke:#F6E6D7;stroke-width:2;stroke-linecap:round;stroke-linejoin:round;stroke-miterlimit:10;}
	.st22{fill:#E9D7E9;stroke:#54444C;stroke-width:8;stroke-linecap:round;stroke-linejoin:round;stroke-miterlimit:10;}
	.st23{fill:#5BBA47;stroke:#54444C;stroke-width:8;stroke-linecap:round;stroke-linejoin:round;stroke-miterlimit:10;}
	.st24{clip-path:url(#SVGID_14_);}
	.st25{fill:#5A8C47;}
	.st26{fill:#F9C41C;}
</style>
<g>
	<g>
		<path class="st14" d="M85.2934,83.4591c-1.8674,5.5642-4.3046,11.0782-7.2938,16.435
			c-21.3574,38.2723-64.8653,33.05-51.4167,60.7793c14.261,29.4046,68.2627-3.0284,89.4458-40.9883
			c3.1811-5.7004,5.6071-11.5958,7.3082-17.5504C132.2696,70.8669,93.4822,59.06,85.2934,83.4591z"/>
	</g>
	<path class="st15" d="M139.9777,138.697L44.4433,85.3852c-10.2449-5.7171-13.9155-18.6568-8.1984-28.9017l0-0.0001
		C51.231,29.6285,85.1499,20.0069,112.0048,34.993l35.3842,19.7458c26.8549,14.9861,36.4765,48.9049,21.4904,75.7598l0,0.0001
		C163.1623,140.7436,150.2226,144.4141,139.9777,138.697z"/>
	<g>
		<defs>
			<path id="SVGID_5_" d="M145.4398,58.2313l-35.3839-19.7456C85.17,24.5984,53.6252,33.5466,39.7377,58.4329
				c-4.6331,8.3026-1.6473,18.8259,6.6552,23.4591l95.534,53.3117c8.3026,4.6331,18.8263,1.6487,23.4594-6.6539
				C179.2738,103.6634,170.3257,72.1187,145.4398,58.2313z"/>
		</defs>
		<clipPath id="SVGID_2_">
			<use xlink:href="#SVGID_5_"  style="overflow:visible;"/>
		</clipPath>
		<g class="st4">
			<g>
				<g>
					<path class="st17" d="M57.1822,72.3937c-0.6951-0.3381-0.8739-0.4173-0.5365-0.2377c0.3303,0.1888,0.1838,0.0597-0.4395-0.3874
						c0.1065,0.0904,0.2052,0.1886,0.2959,0.2945c0.2522,0.2825,0.1318,0.1319-0.3611-0.4519
						c0.5024,0.726-0.2641-1.0817-0.0455-0.1537c0.1986,0.8432,0.0964-0.9203-0.0058-0.3409
						c-0.0368,0.209,0.0809,1.2532,0.033,0.3266c0.0735-0.475,0.062-0.5139-0.0344-0.1166
						c0.0971-0.2266,0.1941-0.4533,0.2912-0.6799c-0.4558,0.8265,0.812-0.777,0.1083-0.1239
						c0.2337-0.2749,0.52-0.4573,0.8587-0.5471c0.4202-0.1507,0.4331-0.1622,0.0389-0.0344c0.2467-0.0273,0.4934-0.0546,0.74-0.0818
						c-0.2007,0.015-0.4012,0.014-0.6017-0.0031c0.2428,0.0275,0.4856,0.055,0.7284,0.0825
						c-0.3998-0.126-0.3951-0.106,0.0142,0.0599c0.5772,0.712-0.0261-0.3222-0.2298-0.158c0.5887,0.4902,0.6874,0.559,0.2961,0.2066
						c-0.0689-0.0741-0.1379-0.1482-0.2068-0.2223c0.4253,0.5871,0.543,0.7192,0.353,0.3961
						c-0.1826-0.3363-0.1117-0.1668,0.2126,0.5084c-0.092-0.412-0.0939-0.3897-0.0058,0.0671
						c0.0921,0.3123,0.0887,0.6269-0.0103,0.9439c-0.0774,0.1628-0.1549,0.3257-0.2323,0.4885
						c0.2889-0.4734,0.2513-0.4383-0.1129,0.1054c-0.4398,0.3901-0.9511,0.6252-1.5509,0.6474c2.6106-0.097,5.1241-2.2303,5-5
						c-0.1176-2.6258-2.2003-5.104-5-5c-5.2671,0.1957-9.1072,5.2501-7.7305,10.4061c1.0384,3.8894,5.1202,6.6292,9.0769,6.4714
						c4.5464-0.1814,7.8251-3.8667,7.9737-8.314c0.134-4.0109-2.4938-7.5871-6.2586-8.7946
						c-2.4916-0.7991-5.5681,0.9347-6.1506,3.4922C53.0672,68.9777,54.5144,71.5381,57.1822,72.3937L57.1822,72.3937z"/>
				</g>
			</g>
			<g>
				<g>
					<path class="st17" d="M92.5941,127.1894c1.3619,0.4456,2.6666,1.088,3.8123,1.967c0.4043,0.3102,0.7444,0.6923,1.1305,1.0221
						c0.6934,0.5923,0.51,0.6385,0.5345,0.405c0.2276-0.8412,0.4551-1.6824,0.6826-2.5236c0.2193-0.2325,0.4386-0.465,0.6579-0.6976
						c0.8412-0.2276,1.6824-0.4551,2.5236-0.6826c-0.5592,0.0617-0.192,0.2457-0.7207-0.3034
						c-0.5497-0.5709-1.4655-0.9887-2.1154-1.4271c-0.7046-0.4753-1.404-0.962-2.1154-1.4271
						c-0.2355-0.2347-0.5039-0.4063-0.8055-0.5146c0.2,1.6088,0.3313,1.902,0.3939,0.8797
						c-0.2275,0.8412-0.4551,1.6824-0.6826,2.5236c-0.0662,0.0486-0.1324,0.0972-0.1986,0.1458
						c4.4852-4.6199-2.5783-11.6988-7.0711-7.0711c-1.7821,1.8357-2.4919,4.3252-1.8647,6.8271
						c0.6128,2.4444,2.5248,3.9912,4.4762,5.3685c3.3598,2.3713,7.5845,6.0451,12.0331,4.8201
						c2.6861-0.7397,4.6401-3.1469,4.8066-5.9176c0.1496-2.4883-0.9372-4.5882-2.5092-6.4495
						c-2.6753-3.1677-6.4114-5.3119-10.3097-6.5873c-2.5661-0.8395-5.4595,0.9769-6.1506,3.4922
						C88.3563,123.7525,90.0184,126.3467,92.5941,127.1894L92.5941,127.1894z"/>
				</g>
			</g>
			<g>
				<g>
					<path class="st17" d="M149.676,135.9516c0.6017,0.3747,1.2035,0.7495,1.8052,1.1242
						c-0.8255-1.4391-1.6509-2.8782-2.4764-4.3174c0.0002,0.1422-0.0116,0.2833-0.0355,0.4234
						c0.0595-0.4431,0.1191-0.8861,0.1786-1.3292c-0.0455,0.216-0.1022,0.4083-0.1802,0.6148
						c0.168-0.3981,0.336-0.7963,0.504-1.1944c-0.1232,0.2656-0.2644,0.5009-0.4404,0.7348
						c0.2606-0.3373,0.5212-0.6746,0.7818-1.0119c-0.143,0.1646-0.2845,0.3061-0.4496,0.4485
						c0.3373-0.2606,0.6746-0.5212,1.0119-0.7818c-0.1721,0.1271-0.3352,0.2292-0.5254,0.3271
						c0.3981-0.168,0.7963-0.336,1.1944-0.504c-0.1954,0.0799-0.3706,0.1337-0.5774,0.1756
						c0.4431-0.0595,0.8861-0.1191,1.3292-0.1786c-0.2135,0.021-0.3926,0.0192-0.6057-0.006
						c0.4431,0.0595,0.8861,0.1191,1.3292,0.1786c-0.1169-0.0195-0.2303-0.0512-0.3401-0.0952
						c0.3981,0.168,0.7963,0.336,1.1944,0.504c-0.1324-0.0626-0.2392-0.1268-0.3563-0.2147
						c0.3373,0.2606,0.6746,0.5212,1.0119,0.7818c-0.0706-0.0588-0.1354-0.1235-0.1943-0.1941
						c0.2606,0.3373,0.5212,0.6746,0.7818,1.0119c-0.1163-0.1516-0.2056-0.3042-0.284-0.4783
						c0.168,0.3981,0.336,0.7963,0.504,1.1944c-0.067-0.1819-0.1128-0.3594-0.1433-0.5508
						c0.0595,0.4431,0.1191,0.8861,0.1786,1.3292c-0.0184-0.1917-0.0191-0.3744-0.0012-0.5661
						c-0.0595,0.4431-0.1191,0.8861-0.1786,1.3292c0.0295-0.1835,0.0739-0.3513,0.1424-0.5242
						c-0.168,0.3981-0.336,0.7963-0.504,1.1944c0.0599-0.1212,0.1212-0.2228,0.2019-0.3312
						c-0.2606,0.3373-0.5212,0.6746-0.7818,1.0119c0.0538-0.0657,0.1139-0.125,0.1802-0.1779
						c-0.3373,0.2606-0.6746,0.5212-1.0119,0.7818c0.0671-0.0534,0.1394-0.0985,0.2169-0.1353
						c-0.3981,0.168-0.7963,0.336-1.1944,0.504c0.1351-0.0546,0.2503-0.0849,0.3946-0.1073
						c1.1567-0.1792,2.424-1.3337,2.9882-2.2978c0.6272-1.0717,0.8929-2.6512,0.504-3.8528
						c-0.3915-1.2098-1.1413-2.3771-2.2978-2.9882c-1.2641-0.6679-2.4493-0.7215-3.8528-0.504
						c-1.0709,0.166-2.2693,0.923-2.9981,1.7064c-0.7863,0.8451-1.3602,1.8644-1.6191,2.9932
						c-0.5383,2.3467,0.0826,4.9802,1.8469,6.6765c2.1544,2.0714,5.6111,2.4173,8.1715,0.8747
						c2.4218-1.4591,3.8108-3.9731,3.9255-6.7723c0.0728-1.7769-1.0166-3.4083-2.4764-4.3174
						c-0.6017-0.3747-1.2035-0.7494-1.8053-1.1242c-2.2235-1.3846-5.6038-0.5478-6.8409,1.7938
						C146.5864,131.5634,147.3028,134.4738,149.676,135.9516L149.676,135.9516z"/>
				</g>
			</g>
			<g>
				<g>
					<path class="st17" d="M64.214,35.7566c1.7357,0.5228,3.4713,1.0455,5.207,1.5683c0.8011,0.2413,1.6021,0.4826,2.4032,0.7238
						c0.4005,0.1206,0.8011,0.2413,1.2016,0.3619c1.313,0.5031,0.8481-0.0566-1.3947-1.6791c0-0.8861,0-1.7723,0-2.6584
						c0.0821-0.1432,0.1642-0.2864,0.2463-0.4296c0.5979-0.5979,1.1958-1.1958,1.7938-1.7938
						c-0.1107,0.0743-0.2215,0.1486-0.3322,0.2229c0.8412-0.2276,1.6824-0.4551,2.5236-0.6826
						c0.6338,0.166,0.6786,0.1401,0.1346-0.0776c-0.3764-0.1765-0.7527-0.353-1.1291-0.5295
						c-0.7527-0.353-1.5054-0.706-2.2581-1.059c-1.5054-0.706-3.0108-1.412-4.5162-2.118
						c-2.4434-1.1459-5.3918-0.6839-6.8409,1.7938c-1.2686,2.1689-0.6621,5.6892,1.7938,6.841
						c3.0086,1.4109,5.9948,2.889,9.0324,4.236c3.6456,1.6166,8.0421,0.8288,9.1638-3.5369
						c2.0215-7.8673-9.2298-9.2777-14.3704-10.826C60.697,24.2538,58.0579,33.9024,64.214,35.7566L64.214,35.7566z"/>
				</g>
			</g>
			<g>
				<g>
					<path class="st17" d="M47.233,14.2219c0.0328,0.1093,0.0541,0.2209,0.0638,0.3346c-0.0595-0.4431-0.1191-0.8861-0.1786-1.3292
						c0.0092,0.1097,0.0073,0.2192-0.0055,0.3285c0.0595-0.4431,0.1191-0.8861,0.1786-1.3292
						c-0.0278,0.1677-0.0659,0.3116-0.1235,0.4715c0.168-0.3981,0.336-0.7963,0.504-1.1944
						c-0.0713,0.1553-0.1471,0.2903-0.2416,0.4327c0.2606-0.3373,0.5212-0.6746,0.7818-1.0119
						c-0.1413,0.1827-0.2918,0.3399-0.4667,0.4907c0.3373-0.2606,0.6746-0.5212,1.0119-0.7818
						c-0.1857,0.1405-0.3736,0.2566-0.5825,0.3595c0.3981-0.168,0.7963-0.336,1.1944-0.504
						c-0.2123,0.0879-0.4187,0.1506-0.6446,0.1927c0.4431-0.0595,0.8861-0.1191,1.3292-0.1786
						c-0.1692,0.0185-0.3218,0.0231-0.4918,0.0137c0.4431,0.0595,0.8861,0.1191,1.3292,0.1786
						c-0.1689-0.0245-0.3125-0.0592-0.4738-0.1152c0.3981,0.168,0.7963,0.336,1.1944,0.504
						c-0.1614-0.0749-0.2903-0.1526-0.433-0.2591c0.3373,0.2606,0.6746,0.5212,1.0119,0.7818
						c-0.0803-0.0665-0.1536-0.1399-0.22-0.2203c0.2606,0.3373,0.5212,0.6746,0.7818,1.0119
						c-0.0937-0.1251-0.1655-0.2416-0.2351-0.3816c0.168,0.3981,0.336,0.7963,0.504,1.1944
						c-0.0747-0.1901-0.1209-0.3725-0.1488-0.5748c0.0595,0.4431,0.1191,0.8861,0.1786,1.3292
						c-0.0134-0.2072-0.0055-0.4031,0.022-0.6089c-0.0595,0.4431-0.1191,0.8861-0.1786,1.3292
						c0.0408-0.2073,0.0974-0.401,0.1738-0.598c-0.168,0.3981-0.336,0.7963-0.504,1.1944c0.0876-0.1923,0.1867-0.3681,0.3066-0.5421
						c-0.2606,0.3373-0.5212,0.6746-0.7818,1.0119c0.128-0.1635,0.2627-0.3059,0.4204-0.4411
						c-0.3373,0.2606-0.6746,0.5212-1.0119,0.7818c0.1239-0.0916,0.2421-0.166,0.3786-0.2374
						c-0.3981,0.168-0.7963,0.336-1.1944,0.504c0.1427-0.0602,0.2728-0.1021,0.4239-0.1363
						c-0.4431,0.0595-0.8861,0.1191-1.3292,0.1786c0.16-0.021,0.3-0.0255,0.4613-0.0161c2.6158,0.1522,5.1161-2.4085,5-5
						c-0.1272-2.8392-2.1979-4.8369-5-5c-2.5626-0.1491-5.2241,1.5471-6.3081,3.8493c-1.3309,2.8265-1.1386,5.9973,1.0733,8.3365
						c2.1315,2.2542,5.856,2.5051,8.4468,0.9376c2.7689-1.6753,4.2036-4.7608,3.426-7.9457
						c-0.6207-2.5422-3.6332-4.3069-6.1506-3.4922C48.0852,8.9256,46.5679,11.4978,47.233,14.2219L47.233,14.2219z"/>
				</g>
			</g>
			<g>
				<g>
					<path class="st17" d="M40.6313,50.839c1.5727,0.5357,3.0349,1.1764,4.4883,1.9917c0.7236,0.4059,1.4292,0.8388,2.1188,1.3
						c0.3465,0.2274,0.6869,0.4638,1.0211,0.7091c0.3227,0.3004,0.255,0.1755-0.203-0.3747c0-0.8861,0-1.7723,0-2.6584
						c3.7845-0.5199,4.8103-1.1999,3.0775-2.0402c-0.0216-0.0176-0.0432-0.0353-0.0648-0.0529
						c-0.552-0.7444-1.6472-1.3664-2.3652-1.9621c-0.6758-0.5606-1.3516-1.1212-2.0274-1.6818
						c-0.3379-0.2803-0.6758-0.5606-1.0137-0.8409c-0.8296-0.7912-0.8978-0.7504-0.2046,0.1223
						c-0.168,1.2843-0.336,2.5685-0.504,3.8528c0.0942-0.1355,0.1885-0.271,0.2827-0.4065
						c-1.8822,0.7659-3.7644,1.5319-5.6465,2.2978c0.1629-0.09,0.2639-0.0438,0.3032,0.1386
						c4.4816,4.6352,11.5482-2.4406,7.0711-7.0711c-1.312-1.3569-2.8694-2.2774-4.7158-2.7103
						c-2.3167-0.5432-4.3304,0.4054-5.6465,2.2978c-3.3673,4.8416,2.1198,8.6578,5.3684,11.3526
						c3.4466,2.8591,7.3626,6.4031,12.1191,3.941c4.6999-2.4328,4.7275-8.2941,0.8925-11.5606
						c-3.3871-2.885-7.51-4.8624-11.6928-6.2871C37.1846,39.1167,34.5636,48.7722,40.6313,50.839L40.6313,50.839z"/>
				</g>
			</g>
			<g>
				<g>
					<path class="st17" d="M131.4875,144.5939c-0.1191,1.2216-0.672,2.444-1.8695,2.7281c-0.3273,0.0777-1.5392-0.1949-0.5436,0.054
						c1.2414,0.3102-0.6042-0.3846,0.5408,0.2162c0.1931,0.096,0.3845,0.1953,0.5742,0.298
						c0.3194,0.1848,0.2235,0.0883-0.2878-0.2895c-0.2226-1.382-0.4452-2.764-0.6678-4.146c0.35-0.5296,0.7919-0.9467,1.3257-1.2513
						c0.1278-0.0302,0.2556-0.0605,0.3833-0.0907c-0.3199,0.0017-0.6395-0.0068-0.9588-0.0254
						c-0.4113-0.0155-0.8223-0.0406-1.2334-0.0609c-1.1844-0.0585-0.3883-0.2076,0.1211,0.1492
						c0.5979,0.5979,1.1958,1.1958,1.7938,1.7938c0.6069,1.4377,0.4214,2.8177-0.5565,4.1398
						c-0.7354,0.4286-1.4709,0.8573-2.2063,1.2859c-1.5451,0.2106-2.8265-0.3228-3.8443-1.6002
						c1.118,2.3728,4.7102,3.1675,6.8409,1.7937c2.4411-1.5738,2.9896-4.3029,1.7938-6.8409
						c-1.2521-2.6575-4.5838-3.8417-7.3043-3.0551c-3.1379,0.9073-5.0614,4.4515-4.1605,7.5887
						c0.9425,3.2821,3.8953,4.5442,7.029,4.7209c2.4088,0.1358,4.847,0.2436,7.0385-0.9665
						c2.6203-1.4468,3.9087-4.5056,3.3716-7.3811c-0.4803-2.5713-2.6198-4.1112-4.8599-5.0998
						c-2.3064-1.0179-4.7336-1.5932-7.2048-0.7399c-3.0962,1.069-4.8041,3.5888-5.1152,6.7793c-0.2546,2.6112,2.4815,5.1128,5,5
						C129.414,149.4628,131.2148,147.3911,131.4875,144.5939L131.4875,144.5939z"/>
				</g>
			</g>
			<g>
				<g>
					<path class="st17" d="M73.4952,89.5237c0.6951,0.3381,0.8739,0.4173,0.5365,0.2377c-0.3304-0.1888-0.1839-0.0597,0.4395,0.3874
						c-0.1065-0.0904-0.2052-0.1886-0.2959-0.2945c-0.2522-0.2825-0.1318-0.1319,0.3611,0.4519
						c-0.5024-0.726,0.2641,1.0817,0.0455,0.1537c-0.1986-0.8431-0.0964,0.9203,0.0058,0.3409
						c0.0368-0.209-0.0809-1.2532-0.033-0.3266c-0.0735,0.475-0.062,0.5139,0.0344,0.1166
						c-0.0971,0.2266-0.1941,0.4533-0.2912,0.6799c0.4558-0.8265-0.812,0.777-0.1083,0.1239
						c-0.2337,0.2749-0.52,0.4573-0.8587,0.5471c-0.4202,0.1507-0.4331,0.1622-0.0389,0.0344
						c-0.2467,0.0273-0.4934,0.0546-0.74,0.0818c0.2007-0.015,0.4012-0.014,0.6017,0.0031
						c-0.2428-0.0275-0.4856-0.055-0.7284-0.0825c0.3998,0.126,0.3951,0.106-0.0142-0.0599
						c-0.5772-0.712,0.0261,0.3222,0.2298,0.158c-0.5887-0.4902-0.6874-0.559-0.2961-0.2066
						c0.0689,0.0741,0.1379,0.1482,0.2068,0.2223c-0.4253-0.5871-0.543-0.7192-0.3531-0.3962
						c0.1826,0.3363,0.1117,0.1668-0.2126-0.5084c0.092,0.412,0.0939,0.3897,0.0058-0.0671
						c-0.0921-0.3123-0.0887-0.6269,0.0103-0.9439c0.0775-0.1628,0.1549-0.3257,0.2323-0.4885
						c-0.2889,0.4734-0.2513,0.4383,0.1129-0.1054c0.4398-0.3901,0.9511-0.6252,1.5509-0.6474c-2.6106,0.097-5.1241,2.2303-5,5
						c0.1176,2.6258,2.2003,5.104,5,5c5.2671-0.1957,9.1072-5.2501,7.7306-10.4061c-1.0384-3.8894-5.1202-6.6292-9.0769-6.4714
						c-4.5464,0.1814-7.8251,3.8667-7.9737,8.314c-0.134,4.0109,2.4938,7.5871,6.2586,8.7946
						c2.4916,0.7991,5.5681-0.9347,6.1506-3.4922C77.6103,92.9397,76.163,90.3793,73.4952,89.5237L73.4952,89.5237z"/>
				</g>
			</g>
			<g>
				<g>
					<path class="st17" d="M46.223,92.368c-1.3619-0.4456-2.6666-1.0879-3.8124-1.967c-0.4043-0.3102-0.7444-0.6923-1.1305-1.0221
						c-0.6934-0.5923-0.51-0.6385-0.5345-0.405c-0.2275,0.8412-0.4551,1.6824-0.6826,2.5236
						c-0.2193,0.2325-0.4386,0.465-0.6579,0.6976c-0.8412,0.2276-1.6824,0.4551-2.5236,0.6826
						c0.5592-0.0617,0.192-0.2457,0.7207,0.3034c0.5497,0.5709,1.4655,0.9887,2.1154,1.4271
						c0.7046,0.4753,1.404,0.9621,2.1154,1.4271c0.2355,0.2348,0.5039,0.4063,0.8055,0.5146c-0.2-1.6088-0.3313-1.902-0.3939-0.8797
						c0.2276-0.8412,0.4551-1.6824,0.6826-2.5236c0.0662-0.0486,0.1324-0.0972,0.1986-0.1458
						c-4.4852,4.6199,2.5783,11.6988,7.0711,7.0711c1.7821-1.8357,2.4919-4.3252,1.8647-6.8271
						c-0.6128-2.4444-2.5248-3.9912-4.4762-5.3684c-3.3598-2.3713-7.5845-6.0451-12.0331-4.8201
						c-2.6861,0.7397-4.6401,3.1469-4.8066,5.9176c-0.1496,2.4883,0.9372,4.5882,2.5092,6.4495
						c2.6753,3.1677,6.4114,5.3119,10.3097,6.5873c2.5661,0.8395,5.4595-0.9769,6.1506-3.4922
						C50.4609,95.8049,48.7987,93.2106,46.223,92.368L46.223,92.368z"/>
				</g>
			</g>
			<g>
				<g>
					<path class="st17" d="M200.7078,74.7893c-1.7357-0.5228-3.4713-1.0455-5.207-1.5683
						c-0.8011-0.2413-1.6022-0.4826-2.4032-0.7238c-0.4005-0.1206-0.8011-0.2413-1.2016-0.3619
						c-1.313-0.5031-0.8481,0.0566,1.3947,1.6791c0,0.8861,0,1.7723,0,2.6584c-0.0821,0.1432-0.1642,0.2864-0.2463,0.4296
						c-0.5979,0.5979-1.1958,1.1958-1.7937,1.7938c0.1107-0.0743,0.2215-0.1486,0.3322-0.2229
						c-0.8412,0.2276-1.6824,0.4551-2.5236,0.6826c-0.6337-0.166-0.6786-0.1401-0.1346,0.0776
						c0.3764,0.1765,0.7527,0.353,1.1291,0.5295c0.7527,0.353,1.5054,0.706,2.2581,1.059c1.5054,0.706,3.0108,1.412,4.5162,2.118
						c2.4434,1.1459,5.3918,0.6839,6.8409-1.7938c1.2686-2.1689,0.6621-5.6892-1.7938-6.841
						c-3.0086-1.4109-5.9948-2.889-9.0324-4.236c-3.6456-1.6166-8.0421-0.8288-9.1638,3.5369
						c-2.0215,7.8673,9.2298,9.2776,14.3704,10.826C204.2247,86.2921,206.8638,76.6434,200.7078,74.7893L200.7078,74.7893z"/>
				</g>
			</g>
			<g>
				<g>
					<path class="st17" d="M161.53,151.7739c-0.0328-0.1093-0.0541-0.2209-0.0638-0.3346c0.0595,0.4431,0.1191,0.8861,0.1786,1.3292
						c-0.0092-0.1097-0.0073-0.2192,0.0055-0.3285c-0.0595,0.4431-0.1191,0.8861-0.1786,1.3292
						c0.0278-0.1677,0.0659-0.3116,0.1235-0.4715c-0.168,0.3981-0.336,0.7963-0.504,1.1944
						c0.0713-0.1553,0.1471-0.2903,0.2416-0.4328c-0.2606,0.3373-0.5212,0.6746-0.7818,1.0119
						c0.1413-0.1827,0.2918-0.3399,0.4667-0.4908c-0.3373,0.2606-0.6746,0.5212-1.0119,0.7818
						c0.1857-0.1405,0.3736-0.2566,0.5825-0.3595c-0.3981,0.168-0.7963,0.336-1.1944,0.504
						c0.2123-0.0879,0.4187-0.1506,0.6446-0.1927c-0.4431,0.0595-0.8861,0.1191-1.3292,0.1786
						c0.1693-0.0185,0.3218-0.0231,0.4918-0.0137c-0.4431-0.0595-0.8861-0.1191-1.3292-0.1786
						c0.1689,0.0245,0.3125,0.0592,0.4738,0.1152c-0.3981-0.168-0.7963-0.336-1.1944-0.504
						c0.1614,0.0749,0.2903,0.1526,0.433,0.2591c-0.3373-0.2606-0.6746-0.5212-1.0119-0.7818
						c0.0803,0.0665,0.1536,0.1399,0.22,0.2202c-0.2606-0.3373-0.5212-0.6746-0.7818-1.0119
						c0.0937,0.1251,0.1655,0.2416,0.235,0.3816c-0.168-0.3981-0.336-0.7963-0.504-1.1944
						c0.0747,0.1901,0.1209,0.3725,0.1488,0.5748c-0.0595-0.4431-0.1191-0.8861-0.1786-1.3292
						c0.0134,0.2072,0.0055,0.4031-0.022,0.6089c0.0595-0.4431,0.1191-0.8861,0.1786-1.3292
						c-0.0408,0.2073-0.0974,0.401-0.1738,0.598c0.168-0.3981,0.336-0.7963,0.504-1.1944
						c-0.0876,0.1923-0.1867,0.3681-0.3066,0.5421c0.2606-0.3373,0.5212-0.6746,0.7818-1.0119
						c-0.1281,0.1635-0.2627,0.3059-0.4204,0.4411c0.3373-0.2606,0.6746-0.5212,1.0119-0.7818
						c-0.1239,0.0916-0.2421,0.166-0.3786,0.2374c0.3981-0.168,0.7963-0.336,1.1944-0.504
						c-0.1427,0.0602-0.2728,0.1021-0.4239,0.1363c0.4431-0.0595,0.8861-0.1191,1.3292-0.1786c-0.16,0.021-0.3,0.0255-0.4613,0.0161
						c-2.6158-0.1522-5.1161,2.4085-5,5c0.1272,2.8392,2.1979,4.8369,5,5c2.5626,0.1491,5.2241-1.5471,6.3081-3.8493
						c1.3309-2.8265,1.1386-5.9973-1.0733-8.3365c-2.1315-2.2542-5.856-2.5051-8.4468-0.9376
						c-2.7689,1.6753-4.2036,4.7608-3.426,7.9457c0.6207,2.5422,3.6332,4.3069,6.1506,3.4922
						C160.6778,157.0701,162.1951,154.4979,161.53,151.7739L161.53,151.7739z"/>
				</g>
			</g>
			<g>
				<g>
					<path class="st17" d="M25.3579,70.1257c-2.7242-0.4598-7.6527-1.1505-9.497-3.3757c0.4286,0.7354,0.8572,1.4709,1.2859,2.2063
						c0.0024,0.0292,0.0048,0.0584,0.0072,0.0876c-0.2275,0.8412-0.4551,1.6824-0.6826,2.5236
						c-2.4643,0.3242-3.1323,0.741-2.004,1.2502c0.4108,0.2306,0.8182,0.4671,1.2222,0.7095
						c0.7111,0.4146,1.4202,0.8327,2.1303,1.2491c1.1616,0.6811,3.055,1.5168,3.716,2.3306
						c-0.4286-0.7355-0.8572-1.4709-1.2859-2.2063c0.0522,0.1693,0.1043,0.3386,0.1565,0.5078
						c0.168-1.2843,0.336-2.5685,0.504-3.8528c-0.0711,0.1489-0.1423,0.2979-0.2134,0.4469
						c1.4391-0.8255,2.8782-1.6509,4.3174-2.4764c0.6223,0.2376,0.5613,0.1316-0.183-0.3179
						c-2.1674-1.6139-5.5846-0.3542-6.8409,1.7938c-1.4913,2.5497-0.3788,5.2232,1.7938,6.841
						c1.5652,1.1656,3.3088,1.5521,5.2302,1.6832c1.6137,0.1101,3.614-1.0036,4.3174-2.4764
						c2.6235-5.4938-1.8855-8.223-6.0387-10.6582c-3.8411-2.2522-8.4185-5.4783-12.868-2.6849
						c-4.6512,2.9201-3.9847,8.9862,0.3263,11.8099c3.4624,2.2679,7.9055,3.5696,11.9482,4.252
						c2.6597,0.4489,5.384-0.7024,6.1506-3.4922C29.5093,73.8773,28.0355,70.5776,25.3579,70.1257L25.3579,70.1257z"/>
				</g>
			</g>
			<g>
				<g>
					<path class="st17" d="M69.9405,119.8875c0.1191-1.2216,0.672-2.444,1.8695-2.7281c0.3273-0.0777,1.5392,0.1949,0.5436-0.054
						c-1.2414-0.3102,0.6042,0.3846-0.5408-0.2162c-0.1931-0.096-0.3845-0.1953-0.5742-0.298
						c-0.3195-0.1848-0.2235-0.0883,0.2878,0.2895c0.2226,1.382,0.4452,2.764,0.6678,4.146
						c-0.35,0.5296-0.7919,0.9466-1.3257,1.2513c-0.1278,0.0302-0.2556,0.0605-0.3833,0.0907
						c0.3199-0.0017,0.6395,0.0068,0.9588,0.0254c0.4113,0.0155,0.8223,0.0406,1.2334,0.0609
						c1.1844,0.0585,0.3883,0.2076-0.1211-0.1492c-0.5979-0.5979-1.1958-1.1958-1.7938-1.7938
						c-0.6069-1.4377-0.4214-2.8177,0.5565-4.1398c0.7354-0.4286,1.4709-0.8572,2.2063-1.2859
						c1.5451-0.2106,2.8265,0.3228,3.8443,1.6002c-1.118-2.3728-4.7102-3.1675-6.841-1.7938
						c-2.4411,1.5738-2.9896,4.3029-1.7938,6.841c1.2521,2.6574,4.5838,3.8417,7.3043,3.0551
						c3.1379-0.9073,5.0614-4.4515,4.1605-7.5887c-0.9425-3.2821-3.8953-4.5442-7.029-4.7209
						c-2.4088-0.1358-4.847-0.2436-7.0385,0.9665c-2.6202,1.4468-3.9087,4.5056-3.3716,7.3811
						c0.4802,2.5713,2.6198,4.1112,4.8599,5.0998c2.3064,1.0179,4.7336,1.5931,7.2048,0.7399
						c3.0962-1.069,4.8041-3.5888,5.1151-6.7793c0.2546-2.6112-2.4815-5.1128-5-5
						C72.014,115.0186,70.2132,117.0903,69.9405,119.8875L69.9405,119.8875z"/>
				</g>
			</g>
			<g>
				<g>
					<path class="st17" d="M107.9046,61.8368c-0.6951-0.3381-0.8739-0.4173-0.5365-0.2377
						c0.3303,0.1888,0.1838,0.0597-0.4395-0.3874c0.1065,0.0904,0.2052,0.1886,0.2959,0.2945
						c0.2522,0.2825,0.1318,0.1319-0.3611-0.4519c0.5024,0.726-0.2641-1.0817-0.0455-0.1537
						c0.1986,0.8432,0.0964-0.9203-0.0058-0.3409c-0.0368,0.209,0.0809,1.2532,0.033,0.3266
						c0.0735-0.475,0.062-0.5139-0.0344-0.1166c0.0971-0.2266,0.1941-0.4533,0.2912-0.6799
						c-0.4558,0.8265,0.812-0.777,0.1083-0.1239c0.2337-0.2749,0.52-0.4573,0.8587-0.5471
						c0.4202-0.1507,0.4331-0.1622,0.0389-0.0344c0.2467-0.0273,0.4933-0.0546,0.74-0.0818
						c-0.2007,0.015-0.4012,0.014-0.6017-0.0031c0.2428,0.0275,0.4856,0.055,0.7284,0.0825
						c-0.3998-0.126-0.3951-0.106,0.0142,0.0599c0.5772,0.712-0.0261-0.3222-0.2298-0.158c0.5887,0.4902,0.6874,0.559,0.2961,0.2066
						c-0.0689-0.0741-0.1379-0.1482-0.2068-0.2223c0.4253,0.5871,0.543,0.7192,0.3531,0.3962
						c-0.1826-0.3363-0.1117-0.1668,0.2126,0.5084c-0.092-0.412-0.0939-0.3897-0.0058,0.0671
						c0.0921,0.3123,0.0887,0.6269-0.0103,0.9439c-0.0774,0.1628-0.1549,0.3257-0.2323,0.4885
						c0.2889-0.4734,0.2513-0.4383-0.1129,0.1054c-0.4398,0.3901-0.9511,0.6252-1.5509,0.6474c2.6106-0.097,5.1241-2.2303,5-5
						c-0.1176-2.6259-2.2003-5.104-5-5c-5.2671,0.1957-9.1072,5.2501-7.7305,10.4061c1.0384,3.8894,5.1202,6.6292,9.0769,6.4714
						c4.5464-0.1814,7.8251-3.8667,7.9737-8.314c0.134-4.0109-2.4938-7.5871-6.2586-8.7946
						c-2.4916-0.7991-5.5681,0.9347-6.1506,3.4922C103.7896,58.4207,105.2368,60.9811,107.9046,61.8368L107.9046,61.8368z"/>
				</g>
			</g>
			<g>
				<g>
					<path class="st17" d="M127.1294,76.3143c0.6017,0.3747,1.2035,0.7494,1.8052,1.1242
						c-0.8255-1.4391-1.6509-2.8782-2.4764-4.3174c0.0002,0.1422-0.0116,0.2833-0.0355,0.4234
						c0.0595-0.4431,0.1191-0.8861,0.1786-1.3292c-0.0456,0.216-0.1022,0.4083-0.1803,0.6148
						c0.168-0.3981,0.336-0.7963,0.504-1.1944c-0.1232,0.2656-0.2644,0.5009-0.4404,0.7348
						c0.2606-0.3373,0.5212-0.6746,0.7818-1.0119c-0.143,0.1646-0.2845,0.3061-0.4496,0.4485
						c0.3373-0.2606,0.6746-0.5212,1.0119-0.7818c-0.1721,0.1271-0.3352,0.2292-0.5254,0.3271
						c0.3981-0.168,0.7963-0.336,1.1944-0.504c-0.1954,0.0799-0.3706,0.1337-0.5774,0.1756
						c0.4431-0.0595,0.8861-0.1191,1.3292-0.1786c-0.2135,0.021-0.3926,0.0192-0.6057-0.006
						c0.4431,0.0595,0.8861,0.1191,1.3292,0.1786c-0.1169-0.0195-0.2303-0.0512-0.3401-0.0952
						c0.3981,0.168,0.7963,0.336,1.1944,0.504c-0.1324-0.0626-0.2392-0.1268-0.3563-0.2147
						c0.3373,0.2606,0.6746,0.5212,1.0119,0.7818c-0.0707-0.0588-0.1354-0.1235-0.1943-0.1941
						c0.2606,0.3373,0.5212,0.6746,0.7818,1.0119c-0.1163-0.1516-0.2056-0.3042-0.284-0.4783
						c0.168,0.3981,0.336,0.7963,0.504,1.1944c-0.067-0.1819-0.1128-0.3594-0.1433-0.5508
						c0.0595,0.4431,0.1191,0.8861,0.1786,1.3292c-0.0184-0.1917-0.0192-0.3744-0.0012-0.5661
						c-0.0595,0.4431-0.1191,0.8861-0.1786,1.3292c0.0295-0.1835,0.0739-0.3513,0.1424-0.5242
						c-0.168,0.3981-0.336,0.7963-0.504,1.1944c0.0599-0.1212,0.1212-0.2228,0.2019-0.3312
						c-0.2606,0.3373-0.5212,0.6746-0.7818,1.0119c0.0538-0.0657,0.1139-0.125,0.1802-0.1779
						c-0.3373,0.2606-0.6746,0.5212-1.0119,0.7818c0.0671-0.0534,0.1394-0.0985,0.2169-0.1353
						c-0.3981,0.168-0.7963,0.336-1.1944,0.504c0.1352-0.0546,0.2503-0.0849,0.3946-0.1073
						c1.1566-0.1792,2.424-1.3337,2.9882-2.2978c0.6272-1.0717,0.8929-2.6512,0.504-3.8528
						c-0.3915-1.2098-1.1413-2.3771-2.2978-2.9882c-1.2641-0.6679-2.4493-0.7215-3.8528-0.504
						c-1.0709,0.1659-2.2692,0.923-2.9981,1.7063c-0.7863,0.8451-1.3602,1.8644-1.6191,2.9932
						c-0.5383,2.3467,0.0826,4.9802,1.8469,6.6765c2.1544,2.0714,5.6111,2.4173,8.1715,0.8747
						c2.4218-1.4591,3.8108-3.9731,3.9255-6.7723c0.0728-1.777-1.0166-3.4083-2.4764-4.3174
						c-0.6017-0.3747-1.2035-0.7494-1.8053-1.1242c-2.2235-1.3846-5.6038-0.5478-6.841,1.7938
						C124.0398,71.926,124.7562,74.8364,127.1294,76.3143L127.1294,76.3143z"/>
				</g>
			</g>
			<g>
				<g>
					<path class="st17" d="M150.8506,89.087c1.7357,0.5228,3.4713,1.0455,5.207,1.5683c0.8011,0.2413,1.6022,0.4826,2.4032,0.7238
						c0.4005,0.1206,0.8011,0.2413,1.2016,0.3619c1.313,0.5031,0.8481-0.0566-1.3947-1.6791c0-0.8861,0-1.7723,0-2.6584
						c0.0821-0.1432,0.1642-0.2864,0.2463-0.4296c0.5979-0.5979,1.1958-1.1958,1.7937-1.7938
						c-0.1107,0.0743-0.2215,0.1486-0.3322,0.2229c0.8412-0.2276,1.6824-0.4551,2.5236-0.6826
						c0.6337,0.166,0.6786,0.1401,0.1346-0.0776c-0.3764-0.1765-0.7527-0.353-1.1291-0.5295
						c-0.7527-0.353-1.5054-0.706-2.2581-1.059c-1.5054-0.706-3.0108-1.412-4.5162-2.118
						c-2.4434-1.1459-5.3918-0.6839-6.8409,1.7938c-1.2686,2.1689-0.6621,5.6892,1.7938,6.841
						c3.0086,1.4109,5.9948,2.889,9.0324,4.236c3.6456,1.6166,8.0421,0.8288,9.1638-3.5369
						c2.0215-7.8673-9.2298-9.2777-14.3704-10.826C147.3336,77.5842,144.6946,87.2328,150.8506,89.087L150.8506,89.087z"/>
				</g>
			</g>
			<g>
				<g>
					<path class="st17" d="M155.3148,65.5137c0.0328,0.1093,0.0541,0.2208,0.0638,0.3346
						c-0.0595-0.4431-0.1191-0.8861-0.1786-1.3292c0.0092,0.1097,0.0073,0.2192-0.0055,0.3285
						c0.0595-0.4431,0.1191-0.8861,0.1786-1.3292c-0.0278,0.1677-0.0659,0.3116-0.1235,0.4715
						c0.168-0.3981,0.336-0.7963,0.504-1.1944c-0.0713,0.1553-0.1471,0.2903-0.2416,0.4328
						c0.2606-0.3373,0.5212-0.6746,0.7818-1.0119c-0.1413,0.1827-0.2918,0.3399-0.4667,0.4907
						c0.3373-0.2606,0.6746-0.5212,1.0119-0.7818c-0.1857,0.1405-0.3736,0.2566-0.5825,0.3595
						c0.3981-0.168,0.7963-0.336,1.1944-0.504c-0.2123,0.0879-0.4187,0.1506-0.6446,0.1927
						c0.4431-0.0595,0.8861-0.1191,1.3292-0.1786c-0.1692,0.0185-0.3218,0.0231-0.4918,0.0137
						c0.4431,0.0595,0.8861,0.1191,1.3292,0.1786c-0.1689-0.0245-0.3125-0.0592-0.4738-0.1152
						c0.3981,0.168,0.7963,0.336,1.1944,0.504c-0.1614-0.0749-0.2903-0.1526-0.433-0.2591
						c0.3373,0.2606,0.6746,0.5212,1.0119,0.7818c-0.0803-0.0665-0.1536-0.1399-0.22-0.2203
						c0.2606,0.3373,0.5212,0.6746,0.7818,1.0119c-0.0937-0.1251-0.1655-0.2416-0.235-0.3816
						c0.168,0.3981,0.336,0.7963,0.504,1.1944c-0.0747-0.1901-0.121-0.3725-0.1488-0.5748
						c0.0595,0.4431,0.1191,0.8861,0.1786,1.3292c-0.0134-0.2072-0.0055-0.4031,0.022-0.6089
						c-0.0595,0.4431-0.1191,0.8861-0.1786,1.3292c0.0408-0.2073,0.0974-0.401,0.1738-0.598
						c-0.168,0.3981-0.336,0.7963-0.504,1.1944c0.0876-0.1923,0.1867-0.3681,0.3066-0.5421
						c-0.2606,0.3373-0.5212,0.6746-0.7818,1.0119c0.1281-0.1635,0.2627-0.3059,0.4204-0.4411
						c-0.3373,0.2606-0.6746,0.5212-1.0119,0.7818c0.1239-0.0916,0.2421-0.166,0.3786-0.2374
						c-0.3981,0.168-0.7963,0.336-1.1944,0.504c0.1427-0.0602,0.2728-0.1021,0.4239-0.1363
						c-0.4431,0.0595-0.8861,0.1191-1.3292,0.1786c0.16-0.021,0.3-0.0255,0.4612-0.0161c2.6158,0.1522,5.1161-2.4085,5-5
						c-0.1272-2.8392-2.1979-4.8369-5-5c-2.5626-0.1491-5.224,1.5471-6.3081,3.8493c-1.3309,2.8265-1.1386,5.9973,1.0733,8.3365
						c2.1315,2.2542,5.856,2.5051,8.4468,0.9376c2.7689-1.6753,4.2036-4.7608,3.426-7.9457
						c-0.6207-2.5422-3.6332-4.3069-6.1506-3.4922C156.1671,60.2175,154.6498,62.7897,155.3148,65.5137L155.3148,65.5137z"/>
				</g>
			</g>
			<g>
				<g>
					<path class="st17" d="M125.9646,49.6976c2.7242,0.4598,7.6527,1.1505,9.497,3.3757c-0.4286-0.7354-0.8572-1.4709-1.2859-2.2063
						c-0.0024-0.0292-0.0048-0.0584-0.0072-0.0876c0.2276-0.8412,0.4551-1.6824,0.6826-2.5236
						c2.4643-0.3242,3.1323-0.741,2.004-1.2502c-0.4108-0.2306-0.8182-0.4671-1.2222-0.7095
						c-0.7111-0.4146-1.4202-0.8327-2.1303-1.2491c-1.1616-0.6811-3.055-1.5168-3.716-2.3306
						c0.4286,0.7354,0.8572,1.4709,1.2859,2.2063c-0.0522-0.1693-0.1043-0.3386-0.1565-0.5078
						c-0.168,1.2843-0.336,2.5685-0.504,3.8528c0.0711-0.1489,0.1423-0.2979,0.2134-0.4468
						c-1.4391,0.8255-2.8782,1.6509-4.3174,2.4764c-0.6223-0.2376-0.5613-0.1316,0.183,0.3179
						c2.1674,1.6139,5.5846,0.3542,6.8409-1.7938c1.4913-2.5497,0.3788-5.2231-1.7937-6.841
						c-1.5652-1.1656-3.3088-1.5521-5.2302-1.6832c-1.6137-0.1101-3.6141,1.0037-4.3174,2.4764
						c-2.6235,5.4938,1.8855,8.223,6.0387,10.6582c3.8411,2.2522,8.4185,5.4783,12.868,2.6849
						c4.6512-2.92,3.9846-8.9862-0.3263-11.8099c-3.4624-2.2679-7.9055-3.5696-11.9482-4.2519
						c-2.6597-0.4489-5.384,0.7024-6.1506,3.4922C121.8133,45.946,123.2871,49.2457,125.9646,49.6976L125.9646,49.6976z"/>
				</g>
			</g>
			<g>
				<g>
					<path class="st17" d="M101.6415,31.8295c-0.1191,1.2216-0.672,2.444-1.8695,2.7281c-0.3273,0.0777-1.5392-0.1949-0.5436,0.054
						c1.2414,0.3102-0.6042-0.3846,0.5408,0.2162c0.1931,0.096,0.3845,0.1953,0.5742,0.298
						c0.3195,0.1848,0.2235,0.0883-0.2878-0.2895c-0.2226-1.382-0.4452-2.764-0.6678-4.146c0.35-0.5296,0.7919-0.9466,1.3257-1.2513
						c0.1278-0.0302,0.2556-0.0605,0.3833-0.0907c-0.3199,0.0017-0.6395-0.0068-0.9588-0.0254
						c-0.4113-0.0155-0.8223-0.0406-1.2334-0.0609c-1.1844-0.0585-0.3883-0.2076,0.1211,0.1492
						c0.5979,0.5979,1.1958,1.1958,1.7938,1.7938c0.6069,1.4377,0.4214,2.8177-0.5565,4.1398
						c-0.7354,0.4286-1.4709,0.8572-2.2063,1.2859c-1.5451,0.2106-2.8265-0.3228-3.8443-1.6002
						c1.118,2.3728,4.7102,3.1675,6.841,1.7938c2.4411-1.5738,2.9896-4.3029,1.7938-6.8409
						c-1.2521-2.6574-4.5838-3.8417-7.3043-3.0551c-3.1379,0.9073-5.0614,4.4515-4.1605,7.5887
						c0.9425,3.2821,3.8953,4.5442,7.029,4.7209c2.4088,0.1358,4.847,0.2436,7.0385-0.9665
						c2.6202-1.4468,3.9087-4.5056,3.3716-7.3811c-0.4802-2.5713-2.6198-4.1112-4.8599-5.0998
						c-2.3064-1.0179-4.7336-1.5931-7.2048-0.7399c-3.0962,1.069-4.8041,3.5888-5.1151,6.7793c-0.2546,2.6112,2.4815,5.1128,5,5
						C99.568,36.6984,101.3688,34.6267,101.6415,31.8295L101.6415,31.8295z"/>
				</g>
			</g>
			<g>
				<g>
					<path class="st17" d="M180.951,134.3131c0.6951,0.3381,0.8739,0.4173,0.5365,0.2377
						c-0.3304-0.1888-0.1839-0.0597,0.4395,0.3874c-0.1066-0.0904-0.2052-0.1886-0.2959-0.2945
						c-0.2522-0.2825-0.1318-0.1319,0.3611,0.4519c-0.5024-0.726,0.2641,1.0816,0.0455,0.1537
						c-0.1986-0.8432-0.0963,0.9203,0.0058,0.3409c0.0368-0.209-0.0809-1.2532-0.033-0.3266
						c-0.0735,0.475-0.062,0.5139,0.0344,0.1166c-0.0971,0.2266-0.1941,0.4532-0.2912,0.6799
						c0.4558-0.8264-0.812,0.777-0.1083,0.1239c-0.2337,0.2749-0.52,0.4573-0.8587,0.5471
						c-0.4202,0.1507-0.4331,0.1622-0.0389,0.0344c-0.2467,0.0273-0.4933,0.0546-0.74,0.0818
						c0.2007-0.015,0.4012-0.014,0.6017,0.0031c-0.2428-0.0275-0.4856-0.055-0.7284-0.0825c0.3998,0.126,0.3951,0.106-0.0142-0.0599
						c-0.5772-0.712,0.0261,0.3222,0.2298,0.158c-0.5887-0.4902-0.6874-0.559-0.2961-0.2066
						c0.0689,0.0741,0.1379,0.1482,0.2068,0.2223c-0.4253-0.5871-0.543-0.7192-0.353-0.3962
						c0.1826,0.3363,0.1117,0.1668-0.2126-0.5084c0.092,0.412,0.0939,0.3897,0.0058-0.0671
						c-0.0921-0.3123-0.0887-0.6269,0.0103-0.9439c0.0775-0.1628,0.1549-0.3257,0.2323-0.4885
						c-0.2889,0.4734-0.2513,0.4383,0.1129-0.1054c0.4398-0.3901,0.9511-0.6252,1.5509-0.6474c-2.6106,0.097-5.1241,2.2303-5,5
						c0.1176,2.6259,2.2003,5.104,5,5c5.2671-0.1957,9.1071-5.2501,7.7305-10.4061c-1.0385-3.8894-5.1202-6.6292-9.0769-6.4714
						c-4.5464,0.1814-7.8251,3.8667-7.9737,8.314c-0.134,4.0109,2.4938,7.5871,6.2586,8.7946
						c2.4916,0.7991,5.5681-0.9347,6.1506-3.4922C185.0661,137.7292,183.6188,135.1688,180.951,134.3131L180.951,134.3131z"/>
				</g>
			</g>
			<g>
				<g>
					<path class="st17" d="M159.7674,113.9971c-1.3619-0.4456-2.6666-1.088-3.8124-1.967
						c-0.4043-0.3102-0.7444-0.6923-1.1305-1.0221c-0.6934-0.5923-0.51-0.6385-0.5345-0.405
						c-0.2275,0.8412-0.4551,1.6824-0.6826,2.5236c-0.2193,0.2325-0.4386,0.465-0.6579,0.6976
						c-0.8412,0.2275-1.6824,0.4551-2.5236,0.6826c0.5592-0.0617,0.192-0.2457,0.7207,0.3034
						c0.5497,0.5709,1.4655,0.9887,2.1154,1.4271c0.7046,0.4753,1.404,0.962,2.1154,1.4271
						c0.2354,0.2348,0.5039,0.4063,0.8055,0.5146c-0.2-1.6088-0.3313-1.902-0.3939-0.8797
						c0.2275-0.8412,0.4551-1.6824,0.6826-2.5236c0.0662-0.0486,0.1324-0.0972,0.1986-0.1458
						c-4.4852,4.6199,2.5783,11.6988,7.0711,7.0711c1.7821-1.8357,2.4919-4.3252,1.8647-6.8271
						c-0.6128-2.4444-2.5248-3.9912-4.4762-5.3685c-3.3598-2.3713-7.5845-6.0451-12.0331-4.8201
						c-2.6861,0.7397-4.6401,3.1469-4.8067,5.9176c-0.1496,2.4883,0.9372,4.5882,2.5092,6.4495
						c2.6753,3.1677,6.4114,5.312,10.3097,6.5873c2.5661,0.8395,5.4595-0.9769,6.1506-3.4922
						C164.0052,117.434,162.3431,114.8398,159.7674,113.9971L159.7674,113.9971z"/>
				</g>
			</g>
			<g>
				<g>
					<path class="st17" d="M132.275,94.8009c-0.6017-0.3747-1.2035-0.7494-1.8053-1.1242c0.8255,1.4391,1.6509,2.8782,2.4764,4.3174
						c-0.0002-0.1422,0.0116-0.2833,0.0355-0.4234c-0.0595,0.4431-0.1191,0.8861-0.1786,1.3292
						c0.0456-0.216,0.1022-0.4083,0.1803-0.6148c-0.168,0.3981-0.336,0.7963-0.504,1.1944
						c0.1232-0.2656,0.2644-0.5009,0.4404-0.7348c-0.2606,0.3373-0.5212,0.6746-0.7818,1.0119
						c0.143-0.1646,0.2845-0.3061,0.4496-0.4485c-0.3373,0.2606-0.6746,0.5212-1.0119,0.7818
						c0.1721-0.1271,0.3352-0.2292,0.5254-0.3271c-0.3981,0.168-0.7963,0.336-1.1944,0.504
						c0.1954-0.0799,0.3706-0.1337,0.5774-0.1756c-0.4431,0.0595-0.8861,0.1191-1.3292,0.1786
						c0.2135-0.021,0.3926-0.0192,0.6057,0.006c-0.4431-0.0595-0.8861-0.1191-1.3292-0.1786
						c0.1169,0.0195,0.2303,0.0512,0.3401,0.0952c-0.3981-0.168-0.7963-0.336-1.1944-0.504
						c0.1324,0.0626,0.2392,0.1268,0.3563,0.2147c-0.3373-0.2606-0.6746-0.5212-1.0119-0.7818
						c0.0707,0.0588,0.1354,0.1235,0.1943,0.1941c-0.2606-0.3373-0.5212-0.6746-0.7818-1.0119
						c0.1163,0.1516,0.2056,0.3042,0.284,0.4783c-0.168-0.3981-0.336-0.7963-0.504-1.1944c0.067,0.1819,0.1128,0.3594,0.1433,0.5508
						c-0.0595-0.4431-0.1191-0.8861-0.1786-1.3292c0.0184,0.1917,0.0192,0.3744,0.0012,0.5661
						c0.0595-0.4431,0.1191-0.8861,0.1786-1.3292c-0.0295,0.1835-0.0739,0.3513-0.1424,0.5242
						c0.168-0.3981,0.336-0.7963,0.504-1.1944c-0.0599,0.1212-0.1212,0.2228-0.2019,0.3312
						c0.2606-0.3373,0.5212-0.6746,0.7818-1.0119c-0.0538,0.0657-0.1139,0.125-0.1802,0.1779
						c0.3373-0.2606,0.6746-0.5212,1.0119-0.7818c-0.0671,0.0534-0.1395,0.0985-0.2169,0.1353
						c0.3981-0.168,0.7963-0.336,1.1944-0.504c-0.1352,0.0546-0.2503,0.0849-0.3946,0.1073
						c-1.1566,0.1792-2.424,1.3337-2.9882,2.2978c-0.6272,1.0717-0.8929,2.6513-0.504,3.8528
						c0.3915,1.2098,1.1413,2.3771,2.2978,2.9882c1.2641,0.6679,2.4493,0.7215,3.8528,0.504
						c1.0709-0.166,2.2692-0.923,2.9981-1.7064c0.7863-0.8451,1.3602-1.8644,1.6191-2.9932
						c0.5383-2.3466-0.0826-4.9802-1.8469-6.6765c-2.1544-2.0714-5.6111-2.4173-8.1715-0.8747
						c-2.4218,1.4591-3.8108,3.9731-3.9255,6.7723c-0.0728,1.777,1.0166,3.4083,2.4764,4.3174
						c0.6018,0.3747,1.2035,0.7494,1.8053,1.1242c2.2235,1.3846,5.6038,0.5478,6.841-1.7938
						C135.3646,99.1892,134.6483,96.2788,132.275,94.8009L132.275,94.8009z"/>
				</g>
			</g>
			<g>
				<g>
					<path class="st17" d="M109.4601,83.1218c-1.7641-0.751-3.5281-1.502-5.2922-2.253c-0.8232-0.3505-1.6478-0.6978-2.4697-1.0514
						c-0.402-0.1665-0.8011-0.3397-1.1973-0.5196c-0.5692-0.2527-0.6389-0.319-0.2092-0.1988
						c0.4286,0.7354,0.8572,1.4709,1.2859,2.2063c-0.1123,0.7628-0.2247,1.5256-0.337,2.2884
						c-0.5979,0.5979-1.1958,1.1958-1.7938,1.7938c0.1182-0.0617,0.2365-0.1234,0.3547-0.1851
						c-0.8412,0.2275-1.6824,0.4551-2.5236,0.6826c0.2111,0.0203,0.4222,0.0406,0.6334,0.0609
						c-0.8412-0.2275-1.6824-0.4551-2.5236-0.6826c3.1312,1.6176,6.0993,3.6706,9.1068,5.5081
						c5.5064,3.3644,10.5364-5.2809,5.0472-8.6347c-2.6188-1.6001-5.2217-3.2308-7.8583-4.8013
						c-3.5543-2.1172-8.4062-1.8402-9.8142,2.7303c-2.2504,7.3051,7.693,9.6258,12.5437,11.6909
						c2.4824,1.0568,5.3575,0.7425,6.841-1.7938C112.4826,87.8619,111.9585,84.1854,109.4601,83.1218L109.4601,83.1218z"/>
				</g>
			</g>
			<g>
				<g>
					<path class="st17" d="M104.0896,105.6014c-0.0328-0.1093-0.0541-0.2208-0.0638-0.3346
						c0.0595,0.4431,0.1191,0.8861,0.1786,1.3292c-0.0092-0.1097-0.0073-0.2192,0.0055-0.3285
						c-0.0595,0.4431-0.1191,0.8861-0.1786,1.3292c0.0278-0.1677,0.0658-0.3116,0.1235-0.4715
						c-0.168,0.3981-0.336,0.7963-0.504,1.1944c0.0713-0.1553,0.1471-0.2903,0.2416-0.4328
						c-0.2606,0.3373-0.5212,0.6746-0.7818,1.0119c0.1413-0.1827,0.2918-0.3399,0.4667-0.4907
						c-0.3373,0.2606-0.6746,0.5212-1.0119,0.7818c0.1857-0.1405,0.3736-0.2566,0.5825-0.3595
						c-0.3981,0.168-0.7963,0.336-1.1944,0.504c0.2123-0.0879,0.4187-0.1506,0.6446-0.1927
						c-0.4431,0.0595-0.8861,0.1191-1.3292,0.1786c0.1693-0.0185,0.3218-0.0231,0.4918-0.0137
						c-0.4431-0.0595-0.8861-0.1191-1.3292-0.1786c0.1689,0.0245,0.3125,0.0592,0.4738,0.1152
						c-0.3981-0.168-0.7963-0.336-1.1944-0.504c0.1614,0.0749,0.2903,0.1526,0.433,0.2591
						c-0.3373-0.2606-0.6746-0.5212-1.0119-0.7818c0.0803,0.0665,0.1536,0.1399,0.22,0.2203
						c-0.2606-0.3373-0.5212-0.6746-0.7818-1.0119c0.0937,0.1251,0.1655,0.2416,0.2351,0.3816
						c-0.168-0.3981-0.336-0.7963-0.504-1.1944c0.0747,0.1901,0.1209,0.3725,0.1488,0.5748
						c-0.0595-0.4431-0.1191-0.8861-0.1786-1.3292c0.0134,0.2072,0.0055,0.4031-0.022,0.6089
						c0.0595-0.4431,0.1191-0.8861,0.1786-1.3292c-0.0408,0.2073-0.0974,0.401-0.1738,0.598c0.168-0.3981,0.336-0.7963,0.504-1.1944
						c-0.0876,0.1923-0.1867,0.3681-0.3066,0.5421c0.2606-0.3373,0.5212-0.6746,0.7818-1.0119
						c-0.1281,0.1635-0.2627,0.3059-0.4204,0.4411c0.3373-0.2606,0.6746-0.5212,1.0119-0.7818
						c-0.1239,0.0916-0.2421,0.166-0.3786,0.2374c0.3981-0.168,0.7963-0.336,1.1944-0.504
						c-0.1427,0.0602-0.2728,0.1021-0.4239,0.1363c0.4431-0.0595,0.8861-0.1191,1.3292-0.1786c-0.16,0.021-0.3,0.0255-0.4613,0.0161
						c-2.6158-0.1522-5.1161,2.4085-5,5c0.1272,2.8392,2.1979,4.8369,5,5c2.5626,0.1491,5.2241-1.5471,6.3081-3.8493
						c1.3309-2.8265,1.1386-5.9973-1.0733-8.3365c-2.1315-2.2542-5.856-2.5051-8.4468-0.9376
						c-2.7689,1.6753-4.2036,4.7608-3.426,7.9457c0.6207,2.5422,3.6332,4.3069,6.1506,3.4922
						C103.2374,110.8977,104.7547,108.3255,104.0896,105.6014L104.0896,105.6014z"/>
				</g>
			</g>
			<g>
				<g>
					<path class="st17" d="M133.4398,121.4176c-2.7242-0.4598-7.6527-1.1505-9.497-3.3757
						c0.4286,0.7355,0.8572,1.4709,1.2859,2.2063c0.0024,0.0292,0.0048,0.0584,0.0072,0.0876
						c-0.2275,0.8412-0.4551,1.6824-0.6826,2.5236c-2.4642,0.3242-3.1323,0.741-2.004,1.2502
						c0.4108,0.2306,0.8182,0.4671,1.2222,0.7095c0.7111,0.4146,1.4202,0.8327,2.1303,1.2491
						c1.1616,0.6811,3.055,1.5168,3.716,2.3306c-0.4286-0.7355-0.8573-1.4709-1.2859-2.2063
						c0.0522,0.1693,0.1043,0.3386,0.1565,0.5079c0.168-1.2843,0.336-2.5685,0.504-3.8528
						c-0.0711,0.1489-0.1423,0.2979-0.2134,0.4469c1.4391-0.8255,2.8782-1.6509,4.3174-2.4764
						c0.6223,0.2376,0.5613,0.1316-0.183-0.3179c-2.1674-1.6139-5.5846-0.3542-6.8409,1.7938
						c-1.4913,2.5497-0.3788,5.2231,1.7938,6.841c1.5653,1.1656,3.3088,1.5521,5.2302,1.6832
						c1.6137,0.1101,3.6141-1.0036,4.3174-2.4764c2.6235-5.4938-1.8855-8.223-6.0387-10.6582
						c-3.8411-2.2522-8.4185-5.4783-12.868-2.6849c-4.6512,2.9201-3.9846,8.9862,0.3263,11.8099
						c3.4624,2.2679,7.9055,3.5696,11.9482,4.2519c2.6597,0.4489,5.384-0.7024,6.1506-3.4922
						C137.5912,125.1692,136.1173,121.8695,133.4398,121.4176L133.4398,121.4176z"/>
				</g>
			</g>
			<g>
				<g>
					<path class="st17" d="M180.469,99.1413c0.1191-1.2216,0.672-2.444,1.8695-2.7281c0.3273-0.0777,1.5392,0.1949,0.5436-0.054
						c-1.2414-0.3102,0.6042,0.3846-0.5408-0.2162c-0.1931-0.096-0.3845-0.1953-0.5741-0.298
						c-0.3195-0.1848-0.2235-0.0883,0.2878,0.2895c0.2226,1.382,0.4452,2.764,0.6678,4.146
						c-0.35,0.5296-0.7919,0.9466-1.3257,1.2513c-0.1278,0.0302-0.2556,0.0605-0.3833,0.0907
						c0.3199-0.0017,0.6395,0.0068,0.9588,0.0254c0.4113,0.0155,0.8223,0.0406,1.2334,0.0609
						c1.1844,0.0585,0.3883,0.2076-0.1211-0.1492c-0.5979-0.5979-1.1958-1.1958-1.7938-1.7938
						c-0.6069-1.4377-0.4214-2.8177,0.5565-4.1398c0.7354-0.4286,1.4709-0.8572,2.2063-1.2859
						c1.5451-0.2106,2.8265,0.3228,3.8443,1.6002c-1.118-2.3728-4.7101-3.1675-6.8409-1.7938
						c-2.4411,1.5738-2.9896,4.3029-1.7938,6.841c1.2521,2.6574,4.5838,3.8417,7.3043,3.0551
						c3.1379-0.9073,5.0614-4.4515,4.1605-7.5887c-0.9425-3.2821-3.8953-4.5442-7.029-4.7209
						c-2.4088-0.1358-4.847-0.2436-7.0385,0.9665c-2.6202,1.4468-3.9087,4.5056-3.3716,7.3811
						c0.4802,2.5713,2.6198,4.1112,4.8599,5.0998c2.3064,1.0179,4.7336,1.5931,7.2048,0.7399
						c3.0962-1.069,4.8041-3.5888,5.1152-6.7793c0.2545-2.6112-2.4815-5.1128-5-5
						C182.5424,94.2724,180.7417,96.3441,180.469,99.1413L180.469,99.1413z"/>
				</g>
			</g>
			<g>
				<g>
					<path class="st17" d="M74.3777,59.6415c1.4183,0.272,2.8151,0.6054,4.1852,1.0653c0.5388,0.1809,1.0743,0.4543,1.6218,0.5988
						c0.1583,0.0873,0.3158,0.1761,0.4725,0.2662c1.1175,0.711,0.8167-0.1773-0.9024-2.6648
						c0.4286-0.7354,0.8572-1.4709,1.2859-2.2063c0.0338-0.0333,0.0677-0.0666,0.1015-0.0999
						c0.8412-0.2276,1.6824-0.4551,2.5236-0.6826c-1.0314,0.0573-2.7119-0.8969-3.7514-1.2911
						c-0.716-0.2715-1.432-0.5431-2.148-0.8146c-0.2343-0.0889-2.2844-1.0648-1.5016-0.3975
						c0.4286,0.7354,0.8572,1.4709,1.2859,2.2063c0.0158,0.1134,0.0316,0.2269,0.0475,0.3403
						c-0.2275,0.8412-0.4551,1.6824-0.6826,2.5236c-0.4255,0.3531-0.851,0.7062-1.2765,1.0592c-0.8861,0-1.7723,0-2.6584,0
						c1.3838,0.2103-0.3975-0.6585,0.678,0.3145c4.7623,4.3083,11.8558-2.7425,7.0711-7.0711
						c-2.0165-1.8243-4.2807-3.2365-7.0845-2.9755c-2.658,0.2474-5.1483,2.1965-5.8685,4.8201
						c-1.864,6.7902,6.5705,8.5343,11.1977,10.2891c2.5865,0.9809,5.269,1.6039,7.8121,0.0195
						c2.4035-1.4975,3.4424-4.5793,2.7225-7.2728c-1.369-5.122-7.9264-6.7975-12.4729-7.6695
						c-2.6494-0.5081-5.3953,0.7433-6.1506,3.4922C70.2134,55.9369,71.7124,59.1303,74.3777,59.6415L74.3777,59.6415z"/>
				</g>
			</g>
		</g>
	</g>
</g>
</svg>
